<svg id="e1UIE385NBt1" xmlns="http://www.w3.org/2000/svg" xmlns:xlink="http://www.w3.org/1999/xlink" viewBox="0 0 300 300" shape-rendering="geometricPrecision" text-rendering="geometricPrecision" project-id="28ce46fad54b437899292de9d48a70de" export-id="4b46bfd4288649649d1b099ee966818d" cached="false"><g transform="translate(2.097858-3.547983)"><circle r="104.000003" transform="translate(149.999998 150.000003)" fill="#254ad2" stroke="#e4e4ff" stroke-width="4"/><path id="e1UIE385NBt4" d="M152.954878,61.012982l.58427-9.600353l4.69707.274951c.960344-.005293,1.898086.291252,2.680766.847764.560968.450552.861489,1.150335.801939,1.867371-.020369.465698-.17559.915436-.446794,1.294559-.248807.321256-.573753.574348-.944478.736981.083001.034048.164936.070983.245645.110783.928164.407762,1.478019,1.377009,1.35184,2.382903-.027965.76521-.436323,1.465876-1.088345,1.867372-.893864.467015-1.909989.647027-2.909893.515532l-4.97202-.297863Zm2.291254-1.53514l2.612029.148932c.449773.054314.905801-.01707,1.317471-.206213.314715-.176094.508062-.510068.504075-.870677.047326-.356965-.101582-.711709-.389513-.927957-.390326-.237248-.837797-.363966-1.294558-.366601l-2.593355-.150031-.156149,2.372547Zm2.48601-3.860762c.43087.042697.865395-.028412,1.260189-.206213.282283-.186852.460267-.495564.480545-.833478s-.119523-.665689-.377438-.884962c-.370336-.222561-.793771-.341271-1.225821-.343688l-2.21106-.137476-.149275,2.268216l2.22286.137601Zm8.90152,4.949108l5.143865.962326-.297863,1.752809-7.320556-1.374752l1.775722-9.451421l7.148711,1.340383-.332232,1.752809-4.97202-.927958-.39319,2.040671l4.391428.823396-.297863,1.706984-4.423437-.818332-.422565,2.193085Zm10.196079,4.456488c-.717964-.21823-1.40085-.538456-2.02776-.95087-.53605-.33969-1.008976-.769976-1.397664-1.271646l1.22582-1.386209c.319974.439131.706497.825654,1.145627,1.145627.473522.342692.999789.605831,1.558053.779027.341866.122261.702361.184274,1.065433.1833.23577.009703.469649-.045791.67592-.160388.166333-.106028.28848-.268879.343688-.458251.073973-.226811.031092-.475526-.114563-.664463-.17881-.237386-.400259-.439394-.653007-.595726-.282592-.198572-.603368-.393328-.962327-.58427-.355144-.206213-.698832-.423882-1.04252-.664463-.335073-.22263-.639363-.488404-.905046-.790483-.24938-.29477-.425978-.644025-.515532-1.019608-.086483-.428086-.054795-.87165.091651-1.283102.150294-.51103.449417-.965706.85922-1.306014.462214-.362946,1.018874-.58561,1.603877-.641551.775452-.07025,1.556953.027426,2.291254.286406.579275.177206,1.133632.427434,1.649702.744658.488095.280209.92569.640359,1.294559,1.065433l-1.145627,1.386208c-.339507-.358237-.724689-.670237-1.145627-.927958-.374815-.241601-.779083-.434112-1.202908-.572813-.339804-.113543-.695705-.171569-1.053977-.171844-.241406-.004204-.477967.06797-.67592.206213-.160846.116796-.281033.281068-.343688.469707-.072014.230672-.029442.481862.114563.67592.173563.239046.396204.438248.653007.584269.286407.183301.607183.378057.973783.572814s.698833.423882,1.042521.664463c.323559.232929.622923.497752.893589.790483.255933.283153.437079.625753.526988.996695.095602.425875.071819.869875-.068738,1.283102-.154957.505348-.458319.952417-.870676,1.283102-.469146.358432-1.028109.580432-1.615334.641551-.769472.058209-1.542552-.047211-2.268341-.309319Zm7.755894,2.657854l3.139017-7.160167-2.829698-1.237277.733201-1.661159l7.6757,3.368143-.721745,1.661158-2.772417-1.237277-3.127561,7.148712-2.096497-.882133Zm10.665785,5.315709l5.327165-8.019388l3.43688,2.291254c.643476.412517,1.193663.954914,1.615334,1.592421.356794.531513.544494,1.158503.538445,1.798634-.018708.653706-.229916,1.287364-.607182,1.821547-.345567.560979-.852771,1.004279-1.454947,1.271645-.591223.240834-1.237838.312241-1.867371.206213-.751703-.1479-1.465177-.448112-2.096497-.882133l-1.596729-1.071985-1.473551,2.206156-1.821547-1.214364Zm5.762503-1.477859c.4337.338029.974505.508807,1.523684.481163.477062-.047394.902777-.319847,1.145627-.733201.283199-.376567.376246-.862966.252037-1.317471-.199533-.51143-.567199-.9397-1.04252-1.214364l-1.499797-.994989-1.838777,2.786234l1.459746.992628Zm2.97863,7.515312l6.300947-7.27473l3.150474,2.726591c.582242.484119,1.0614,1.080155,1.409121,1.75281.28171.57523.385412,1.221421.297863,1.855915-.096393.64595-.383636,1.248355-.824851,1.729896-.417547.508384-.975272.882855-1.603878,1.07689-.609084.182464-1.258288.182464-1.867372,0-.008122-.002784-.016233-.00558-.024333-.008398l-.399548,3.68586-1.798635-1.569509.338808-3.196906c-.021423-.01872-.042709-.037622-.063857-.056674l-1.424301-1.233416-1.794911,2.069723-1.695527-1.558052Zm5.980172-.76757c.391174.388299.905916.627425,1.454946.67592.463452-.029214.895708-.243526,1.199505-.594729s.453646-.80981.415829-1.272643c-.125389-.534332-.438409-1.005906-.882133-1.328927l-1.362563-1.150118-2.181342,2.496974l1.355758,1.173523Zm2.050672,8.088125l6.965411-6.644635l1.546596,1.62679-6.965411,6.644635-1.546596-1.62679Zm6.346772,7.538225c-.441719-.553281-.779427-1.182104-.996695-1.855916-.203887-.623736-.274148-1.283422-.206213-1.936109.060398-.642846.251419-1.266582.561357-1.833003.978961-1.838479,3.000088-2.871903,5.063671-2.589117.651873.100632,1.278176.326252,1.844459.664464c1.257303.795088,2.188067,2.014424,2.623485,3.43688.19022.691444.209879,1.41871.057282,2.11941l-1.93611-.320775c.103302-.456292.103302-.929917,0-1.386209-.106199-.443907-.309674-.858693-.595725-1.214364-.259027-.33418-.577499-.617699-.939414-.836308-.353484-.197666-.743054-.322333-1.145627-.3666-.384908-.044096-.774776-.009017-1.145627.103106-.418074.119454-.807736.322081-1.145627.595726-.344387.255921-.632879.579492-.847764.95087-.204231.350596-.329345.741599-.3666,1.145627-.046226.384163-.015065.773699.09165,1.145627.118263.418543.321004.808434.595726,1.145627.275924.368147.637782.663134,1.053976.85922.41828.202776.875626.312229,1.340384.320775l-.137475,1.959022c-.722032-.011731-1.430132-.200553-2.062129-.549901-.670902-.395333-1.252216-.92593-1.706984-1.558052Zm6.449879,5.842697l2.715136,4.4794-1.53514.927958-3.860762-6.381141l8.237056-4.983477l3.769113,6.220754-1.53514.927957-2.612029-4.330469-1.781931,1.0802l2.320375,3.823083-1.500771.905045-2.310202-3.824538-1.905705,1.155228Zm9.565984,10.493941c-.136845-.326091-.136845-.693516,0-1.019608.294953-.685852,1.076867-1.018794,1.775722-.756113.663593.298183.987473,1.055557.744657,1.741352-.13169.339816-.402848.606793-.744657.733202-.328864.142768-.702201.142768-1.031064,0-.332072-.123362-.600492-.375251-.744658-.698833Zm-2.004847,10.035691l9.325403-2.39436l1.145626,4.582507c.293579.912561.293579,1.894226,0,2.806786-.258029.673548-.83295,1.175528-1.535139,1.340383-.443908.138323-.919389.138323-1.363296,0-.402459-.126752-.763652-.356839-1.0481-.666147-.006645.088557-.016234.176999-.02879.265178-.067488.474931-.270322.920385-.584269,1.283102-.332003.377244-.778832.634872-1.271646.733201-.735103.208264-1.525654.036408-2.107953-.45825-.716281-.709945-1.199735-1.620914-1.386209-2.61203l-1.145627-4.88037Zm2.176691,1.729897l.641551,2.520379c.100999.427548.310064.822021.607183,1.145626.278788.212342.639431.285399.97888.198308s.620357-.324762.762472-.645102c.129548-.4374.129548-.902983,0-1.340383l-.637152-2.495496-2.352934.616668Zm4.467945,1.076889c.081397.429828.284138.82736.58427,1.145627.261901.214003.609851.290932.937558.207312s.596253-.317877.7236-.631194c.119982-.415393.119982-.856253,0-1.271646l-.5499-2.142322-2.242691.587764.547163,2.104459Zm-2.039216,10.047147l.653007,5.201146-1.775721.217669-.927958-7.389293l9.554528-1.202908.905045,7.217449-1.775722.217669-.630094-5.017846-2.065027.260103.564256,4.425511-1.729897.217669-.564221-4.425304-2.208196.278135Zm-1.122714,11.101124c-.013816-.750111.07875-1.498388.27495-2.222516.148107-.620655.412437-1.207628.779027-1.729897l1.684071.733202c-.305.451079-.540564.945394-.698832,1.466402-.174021.559891-.259072,1.143633-.252038,1.729896-.002555.356749.047623.711904.148931,1.053977.073458.227418.203555.432428.378057.595726.151578.123911.342749.188994.538445.1833.239355.00975.465995-.107929.595726-.309319.168968-.247536.293051-.522864.3666-.813395.09165-.332232.171844-.698832.252038-1.145627s.1833-.790482.297863-1.145627c.107632-.401954.269509-.787366.481163-1.145626.189865-.331052.462192-.60732.790483-.801939.383957-.21736.819043-.328108,1.260189-.320776.533828-.015557,1.060209.128001,1.512228.412426.506172.31845.90524.781352,1.145627,1.328927.316135.721436.46871,1.503899.446794,2.291254.008879.605257-.056525,1.209312-.194757,1.798634-.116063.545387-.321199,1.067919-.607182,1.546596l-1.684071-.664464c.238943-.424592.420032-.879234.538444-1.351839.113349-.429782.167308-.873048.160388-1.317471.00527-.357779-.04893-.713955-.160388-1.053977-.075015-.229102-.214175-.431878-.400969-.584269-.161774-.111436-.35346-.17134-.549901-.171844-.245405-.008845-.478471.107688-.618638.309319-.164971.244156-.285227.515692-.355145.801939-.080194.332231-.160387.698832-.240581,1.145626s-.183301.801939-.297863,1.202909c-.121631.376876-.278915.741312-.469707,1.088345-.19116.333091-.462982.612796-.790483.813395-.372443.226135-.801652.341385-1.237277.332232-.528432.016944-1.049004-.13122-1.489315-.423882-.502575-.322609-.900588-.784308-1.145626-1.328927-.317431-.725411-.473786-1.511036-.458251-2.30271Zm-.126019,8.179775l7.778806.756114.297863-3.058824l1.798634.171844-.813395,8.35162-1.81009-.1833.309319-3.058824-7.778806-.76757.217669-2.21106Zm-1.764265,11.799957l9.268121,2.600572-1.145627,4.009694c-.194505.737498-.537563,1.42752-1.008152,2.02776-.397693.501486-.936321.872532-1.546596,1.065433-.627597.189223-1.297056.189223-1.924653,0-1.300195-.296374-2.272958-1.379255-2.428729-2.70368-.09975-.768887-.033338-1.550227.194757-2.291253l.51552-1.852868-2.554736-.713336.630095-2.142322Zm3.207755,5.098039c-.186279.518396-.186279,1.085481,0,1.603877.221839.407294.598888.707631,1.045476.832768s.924796.06443,1.325971-.168304c.433471-.339232.730337-.823167.836308-1.363296l.484451-1.739611-3.20268-.897026-.489526,1.731592Zm-8.638026,10.711611l3.211993-.663639c.013565-.030943.027427-.061772.041587-.092475l.750821-1.771952-2.480718-1.04629.870677-2.062128l8.855695,3.746199-1.615334,3.83785c-.285685.710014-.714676,1.353501-1.260189,1.890285-.462776.44204-1.043758.740487-1.672616.85922-.644988.098191-1.304594.010769-1.90174-.252038-.612933-.246218-1.141938-.663845-1.523684-1.202908-.347789-.530265-.527469-1.153143-.515532-1.787178.000035-.005419.00008-.010838.000126-.016245l-3.689044.772358.927958-2.211059Zm4.960564-.126019c-.251912.486731-.321005,1.047641-.194757,1.580965.139893.449383.483959.8062.927958.962326.422805.207072.917578.207072,1.340383,0c.4713-.283176.825058-.726384.996695-1.248733l.731277-1.652693-3.104878-1.306576-.696678,1.664711Zm-7.034149,4.376294l8.454726,4.582507-1.065433,1.970479-8.454726-4.582508l1.065433-1.970478Zm-5.258427,8.35162c.394084-.584259.886326-1.095895,1.454946-1.512228.537574-.379122,1.145031-.647806,1.787178-.790482.63478-.131862,1.289872-.131862,1.924653,0c1.346959.283611,2.530449,1.080818,3.299405,2.222516.357963.543153.596184,1.156281.698832,1.798634.114437.650624.091009,1.318021-.068737,1.959022-.161385.688373-.448811,1.340922-.847764,1.924653-.427663.649043-.98076,1.206047-1.62679,1.638246-.600996.393557-1.289437.63352-2.004847.698833l-.286407-1.93611c.463761-.048574.912389-.192912,1.317471-.423882.388574-.239207.720771-.559684.973783-.939414.241361-.345223.41262-.73445.504076-1.145627.077158-.377976.077158-.76765,0-1.145626-.072885-.385996-.225024-.752677-.446795-1.07689-.243789-.352074-.555365-.651976-.916501-.882132-.348328-.238348-.736226-.412896-1.145627-.515532-.378538-.071338-.767089-.071338-1.145627,0-.386385.077937-.752826.233868-1.076889.45825-.348901.238211-.648448.541641-.882133.893589-.256425.382136-.424684.816489-.492619,1.271646-.067363.464048-.032169.937226.103106,1.386209l-1.90174.45825c-.205927-.691546-.241304-1.422673-.103107-2.130866.131896-.7918.432761-1.54592.882133-2.211059Zm-3.574356,7.927737l-3.43688,3.952413-1.340384-1.145627l4.880371-5.636484l7.263274,6.312404-4.765808,5.499008-1.35184-1.145626l3.322318-3.814938-1.592765-1.401159-2.909548,3.348725-1.317471-1.145627l2.910717-3.361051-1.661984-1.462038Zm-7.045605,12.326945c.264319-.237752.614136-.35747.968708-.331522s.683229.195307.91012.468997c.251534.263334.376866.622591.343688.985239-.029992.352131-.199029.677822-.469707.905045-.265304.232929-.609485.355855-.962326.343688-.365043-.025673-.702166-.204632-.927958-.492619-.237752-.264319-.35747-.614136-.331521-.968696s.195306-.683229.468996-.910132Zm-10.150253,1.168539l5.166777,8.122494-3.975325,2.520379c-.771672.573604-1.707798.882969-2.669311.882133-.719293-.031012-1.374294-.423149-1.741353-1.04252-.259301-.385756-.395149-.841246-.389513-1.306015.008695-.397487.116682-.785556.312928-1.129302-.065702.01526-.13185.028916-.198365.040956-.467851.081947-.949427.026224-1.386209-.160387-.479089-.194711-.881388-.540702-1.145626-.985239-.441491-.632157-.519725-1.449333-.206213-2.153779.451698-.89887,1.167176-1.638338,2.050672-2.119409l4.181538-2.669311Zm-.962327,2.600573l-2.21106,1.397665c-.395161.223832-.720393.553017-.939414.95087-.158222.323239-.122868.707734.091651.996695.174937.317339.508314.514742.870676.515532.45274-.032203.888273-.186611,1.260189-.446794l2.158018-1.402717-1.23006-2.011251Zm.229125,4.559595c-.3773.211311-.687101.525086-.893588.905045-.125779.31452-.092716.670318.088843.956289s.489503.467232.827647.487201c.413193-.035022.809144-.181525,1.145626-.423882l1.867372-1.145627-1.191807-1.948711-1.844093,1.169685Zm-10.104428,1.22582l-4.742895,2.291254-.756114-1.615334l6.747742-3.173386l4.089888,8.706764-6.575898,3.093192-.76757-1.615334l4.582507-2.153778-.897885-1.92746-4.02831,1.893091-.744657-1.580965l4.035023-1.896241-.941831-2.021803Zm-10.860542,2.348535c.707734-.249391,1.449596-.388493,2.199603-.412425.634437-.048621,1.27231.025284,1.878828.217669l-.1833,1.833003c-.522475-.16339-1.068034-.240765-1.615334-.229126-.584533.001959-1.164873.098685-1.71844.286407-.343344.105329-.668061.263827-.962327.469707-.195948.129674-.350928.31247-.446794.526988-.068428.184813-.068428.388001,0,.572814.073446.228575.252588.407717.481163.481163.286544.081282.585003.112294.882133.09165.355144,0,.721745,0,1.145627-.080194s.813395-.068737,1.237277-.080193c.385171-.010128.77009.028365,1.145626.114562.376488.087045.726316.26393,1.019608.515532.325645.313031.559398.709223.67592,1.145627.171214.506081.195055,1.050402.068738,1.569509-.165028.56319-.48688,1.067816-.927958,1.454946-.582815.521146-1.27026.911747-2.016303,1.145627-.574108.196475-1.170739.319653-1.775722.3666-.556282.051267-1.117181.012591-1.661159-.114562l.126019-1.810091c.473969.101766.959875.136479,1.44349.103107.448238-.018239.89171-.099223,1.317471-.240582.340984-.102327.66239-.261088.95087-.469707.192168-.145357.342382-.339048.435338-.561357.056995-.190587.056995-.393683,0-.58427-.077547-.232573-.260045-.415072-.492619-.492619-.281641-.086232-.577259-.117347-.870677-.09165l-1.145626.103106c-.410627.049525-.823695.076299-1.237277.080194-.384805.00142-.768727-.03697-1.145627-.114563-.376831-.079655-.727508-.253023-1.019608-.504076-.323319-.289328-.561082-.661805-.687376-1.076889-.173036-.502208-.19297-1.044502-.057281-1.558052.173814-.561942.498805-1.065273.939414-1.454946.577224-.542031,1.265138-.952429,2.016303-1.202909Zm-7.813175,2.382904l1.695528,7.641331l3.001542-.653007.389513,1.764265-8.191232,1.775722-.389513-1.764266l3.012999-.653007-1.661159-7.629875l2.142322-.481163Zm-11.7885,1.93611l.378057,9.611809-4.170082.171844c-.759493.042067-1.519594-.070972-2.233972-.332232-1.242226-.473018-2.065989-1.660873-2.073585-2.990086-.043167-.655493.108285-1.309119.435338-1.878828.339576-.541916.823603-.978343,1.397665-1.26019.692302-.324773,1.4464-.496686,2.21106-.504075l1.921296-.07505-.099749-2.651542l2.233972-.09165Zm-3.860763,4.616876c-.551046-.01416-1.089811.164076-1.523683.504075-.342027.325484-.515257.790242-.469707,1.26019.00417.447138.210555.868339.561357,1.145627.460851.300452,1.010752.433883,1.558052.378057l1.800284-.073183-.13122-3.280445-1.795083.065679Zm-6.78211-4.376295l-.824852,9.588897-4.158625-.366601c-.760868-.042984-1.503429-.250113-2.176691-.607182-.565069-.299925-1.030766-.75766-1.340383-1.317471-.294094-.587993-.413377-1.248-.343688-1.901741.037679-.655779.268901-1.285679.664463-1.81009.401176-.49522.938967-.861706,1.546596-1.053977.004205-.001317.008409-.002634.012625-.003952l-1.86854-3.249628l2.382904.194757l1.626229,2.837053c.046042.004594.092062.009772.138036.015558l1.92573.165497.228049-2.685876l2.188147.194756Zm-4.410664,4.101344c-.541847-.083321-1.09586.021824-1.569508.297863-.36266.293051-.590674.720886-.631722,1.185334s.108399.925644.414053,1.277764c.416389.36164.949255.560956,1.500771.561357l1.759018.157948.308242-3.327622-1.780854-.152644Zm-6.358228-5.315708l-1.764266,9.462877-2.211059-.400969l1.741352-9.462878l2.233973.40097Zm-9.577441-2.39436c.681282.191801,1.321859.506275,1.890285.927957.53369.382078.979075.874343,1.306014,1.44349.330892.557439.541618,1.177888.618639,1.821547.078017.680628.019601,1.369975-.171844,2.027759-.177779.662218-.494063,1.279173-.927958,1.810091-.405036.505496-.912629.919388-1.489315,1.214364-.58223.307658-1.222017.491016-1.878828.538445-.706325.062436-1.418068-.011457-2.096497-.217669-.749251-.20273-1.450386-.553304-2.062128-1.031065-.559238-.452408-.999663-1.034409-1.283102-1.695527l1.752809-.870677c.180379.438821.458583.830649.813395,1.145627.331143.293957.721962.512817,1.145627.641551.409355.115857.836651.154694,1.260189.114563.402883-.026819.794504-.144315,1.145627-.343688.339484-.1936.638893-.450231.882133-.756114.258877-.342325.449463-.731276.561357-1.145627.125056-.411497.16788-.843605.126019-1.271645-.038356-.400718-.15513-.789979-.343688-1.145627-.410891-.712993-1.092676-1.229498-1.890285-1.432034-.441776-.13256-.907748-.163893-1.363295-.09165-.458263.089325-.894334.268432-1.283103.526988l-1.031064-1.661158c.592633-.411258,1.277099-.670879,1.993391-.756114.781088-.095362,1.573496-.025089,2.325622.206213Zm-8.638026-.950871l-4.823089-2.050672.698833-1.638246l6.873761,2.909892-3.769113,8.855696-6.69046-2.841155.698832-1.649703l4.651245,1.981935.807598-1.905315-4.11846-1.749235.687377-1.615334l4.110509,1.761654.872967-2.059517Zm-13.896453-2.921348c.302904.179153.521547.472056.607182.813395.166964.728699-.273976,1.458521-.996695,1.649703-.341706.082989-.70251.020781-.996696-.171844-.305687-.173219-.528695-.462295-.618638-.801939-.173425-.729719.27007-1.463767.996695-1.649703.343631-.091134.709773-.032891,1.008152.160388Zm-4.227363-9.279577l-6.152016,7.400749-3.608725-3.001542c-.788557-.562377-1.371853-1.366916-1.661158-2.291254-.190644-.695659-.018411-1.440557.45825-1.981934.292341-.371676.692509-.643785,1.145627-.779026.386351-.11218.794011-.124507,1.185048-.036958-.046066-.073962-.089794-.149516-.131071-.226537-.222263-.422163-.31774-.89958-.274951-1.374752.052642-.501739.260951-.974436.595726-1.351839.47571-.599404,1.219257-.921749,1.981935-.859221.999605.150272,1.928113.60653,2.657854,1.306015l3.803481,3.196299Zm-2.772417-.126019l-2.004847-1.661159c-.320134-.304324-.71557-.517858-1.145627-.618638-.350516-.007837-.685337.145265-.908688.415518s-.31066.627918-.236938.97069c.171878.421029.457471.785957.824851,1.053977l1.982003,1.651673l1.489246-1.812061Zm-4.20445,1.672615c-.318267-.300131-.715799-.502873-1.145627-.58427-.342577-.037485-.679048.111092-.882133.389513-.240341.244294-.324315.602268-.217669.927958.167032.401611.44031.750145.790483,1.008152l1.695527,1.409121l1.445804-1.759202-1.686385-1.391272Zm-4.273188-9.30249l-3.574356-3.814937l1.283102-1.225821l5.086583,5.441728-7.022692,6.575898-4.937652-5.304253l1.306015-1.22582l3.43688,3.688918l1.520762-1.422261-3.044446-3.309178l1.271646-1.145626l3.050174,3.260156l1.623984-1.518804Zm-5.647941-9.634721c.449602.603069.812124,1.266399,1.07689,1.970478.234246.587145.358512,1.212359.3666,1.844459l-1.798634.400969c-.005144-.546876-.101949-1.089021-.286407-1.603877-.174742-.556282-.441982-1.079135-.790482-1.546596-.20658-.2965-.45777-.559284-.744658-.779027-.191102-.143031-.416148-.233845-.653007-.263494-.192717-.011193-.383258.045562-.538444.160388-.199798.13649-.316365.365318-.30932.607182.007997.298917.070101.593916.183301.870677.114562.320775.263494.675919.423882,1.04252s.320775.744657.45825,1.145627c.131094.36998.215756.754796.252038,1.145627.041793.390292-.017379.784777-.171844,1.145626-.185351.40058-.474003.744601-.836307.996696-.430928.317235-.943859.50411-1.477859.538444-.584373.020438-1.161918-.130922-1.661159-.435338-.665334-.39492-1.236223-.930615-1.672615-1.569509-.363336-.483087-.663616-1.0105-.893589-1.569508-.228037-.515189-.367471-1.065181-.412426-1.62679l1.764266-.435339c.054394.482367.169885.955877.343688,1.409121.164592.407443.380165.792385.641551,1.145627.203177.295996.454951.555515.744657.76757.194986.138415.425601.217944.664464.229126.196887.002509.389478-.057671.549901-.171844.198342-.144235.317178-.373429.320775-.618639-.006564-.291676-.068783-.579424-.1833-.847764-.126019-.320775-.274951-.664463-.446795-1.04252s-.320775-.76757-.45825-1.145627c-.125481-.371561-.209994-.755713-.252038-1.145627-.036511-.389158.018421-.781455.160387-1.145627.177091-.39901.457988-.743202.813396-.996695.425165-.316674.936607-.49648,1.466402-.515532.588016-.020667,1.169295.130624,1.672615.435338.671486.405564,1.246247.952955,1.684071,1.603878Zm-4.662701-6.667548l-6.747742,3.9295l1.546597,2.657854-1.558053.916501-4.227363-7.240361l1.558053-.916502l1.558052,2.657855l6.724829-3.940957l1.145627,1.93611ZM74.33051,177.88983l-9.02754,3.322318-1.44349-3.906588c-.281033-.709979-.409836-1.471053-.378056-2.233972.034265-.640314.253103-1.257027.630094-1.775721.402081-.524904.947033-.922677,1.569509-1.145627.610356-.2467,1.280249-.306513,1.924653-.171844.618982.155988,1.182287.481277,1.62679.939414.515601.560647.906111,1.224514,1.145627,1.947565l.681648,1.8458l2.503195-.917842.76757,2.096497Zm-5.590659-2.245429c-.147465-.530356-.480934-.989901-.939414-1.294558-.411601-.230786-.907337-.256208-1.340384-.068737-.450288.13602-.810748.475274-.973782.916501-.153961.527378-.113303,1.092516.114562,1.592421l.624218,1.696387l3.134779-1.15714-.619979-1.684874Zm2.08504-7.755893l-9.325402,2.107953-.927958-4.055519c-.187413-.749629-.214736-1.530351-.080193-2.291253.109006-.629763.404303-1.212371.847763-1.672615.463028-.465228,1.052683-.783953,1.695528-.916502.636075-.157283,1.303861-.129456,1.924653.080194.596505.224772,1.111487.623989,1.477859,1.145627.002589.004158.005167.008329.007744.012499l2.478266-2.716178.538445,2.291253-2.251077,2.467188c.00606.036751.011766.073572.017104.110472l.427491,1.874979l2.642789-.603333.526988,2.165235Zm-5.258427-2.944261c-.077639-.546876-.350229-1.047286-.76757-1.409121-.381069-.273679-.866368-.358089-1.31747-.229125-.486056.057338-.913626.348075-1.145627.779026-.211494.509242-.239837,1.076076-.080194,1.603877l.402928,1.758217l3.30888-.753296-.400947-1.749578Zm3.116105-7.721525l-9.543071,1.225821-.286407-2.21106l9.520159-1.237277.309319,2.222516Zm-.653007-9.85239c.030439.707447-.070559,1.414413-.297863,2.08504-.209432.620506-.540472,1.193022-.973783,1.684072-.432474.482847-.958683.872635-1.546596,1.145627-.621239.289946-1.296483.446061-1.981934.45825-.683161.030806-1.365404-.078349-2.004847-.320775-.604261-.233009-1.154116-.587879-1.615334-1.042521-.467462-.464402-.837476-1.017477-1.088346-1.62679-.276164-.653053-.423962-1.35318-.435338-2.062128-.041345-.780092.079587-1.560286.355145-2.291254.250972-.673823.668794-1.272963,1.214364-1.741352l1.363296,1.397664c-.354514.315243-.632661.707001-.813395,1.145627-.183839.421854-.266232.88093-.240582,1.340384.007527.421819.097023.838163.263494,1.22582.156321.364081.386478.691753.67592.962327.285605.267836.625547.471013.996696.595726.398976.147992.823637.214221,1.248733.194756.429415-.015603.852472-.108743,1.248733-.27495.357733-.156504.680915-.382342.95087-.664464.269211-.290989.475859-.634116.607183-1.008151.144096-.395803.206453-.816706.1833-1.237277-.00818-.458835-.121861-.909628-.332232-1.317471-.217978-.401966-.513985-.7564-.870676-1.04252l1.271645-1.489315c.571325.440493,1.030572,1.009652,1.340384,1.661159.300796.703334.464116,1.457752.481163,2.222516Zm-1.752809-8.500551l.458251-5.224059l1.775721.160388-.653007,7.423662-9.588896-.836308.641551-7.240361l1.775721.160388-.435338,5.040758l2.064293.176598.387348-4.426874l1.741353.148932-.387359,4.426919l2.220362.189957Zm-1.53514-14.114123c-.072415.343872-.283909.642445-.58427.824852-.306844.191537-.677237.253275-1.02962.171626s-.657876-.299994-.849208-.606965c-.363438-.633497-.173012-1.440328.435339-1.844459.327477-.189166.722157-.222755,1.076889-.09165.355522.066435.664784.283749.847764.595726.155633.291825.192568.632466.103106.95087Zm7.549681-6.919586l-8.935889-3.574355l1.741352-4.364839c.290749-.920511.868935-1.723561,1.649703-2.291253.605212-.39114,1.365358-.455559,2.027759-.171844.433987.159952.809409.447504,1.07689.824851.224016.333011.364435.714218.410489,1.11135.041506-.046822.084169-.092693.127955-.137567.335554-.340217.760536-.578519,1.225821-.687376.492539-.101205,1.004256-.049228,1.466402.148931.719843.267951,1.257543.878776,1.432034,1.62679.158429.994233.010597,2.013142-.423882,2.921349l-1.798634,4.593963Zm-.744658-2.646398l.973783-2.428729c.193061-.410558.268409-.866632.217669-1.31747-.100093-.336437-.348889-.608431-.675106-.738013s-.693838-.102488-.997509.073549c-.35409.303763-.616026.70062-.756114,1.145627l-.961478,2.403708l2.198755.861328Zm-2.886979-3.494161c.182853-.393168.250388-.830156.194756-1.26019-.068966-.334408-.308047-.608271-.630094-.721745-.309549-.147465-.675187-.112225-.950871.09165-.340056.27172-.591349.638687-.721745,1.053977l-.824851,2.050672l2.117393.829457.815412-2.043821Zm7.503855-6.988324l2.543292-4.582507l1.569509.85922-3.620181,6.518616-8.408901-4.662701l3.5629-6.358229l1.569508.870677-2.451641,4.422119l1.77579.994748l2.199535-3.893184l1.53514.847764-2.257389,3.872964l1.982438,1.110513Zm7.446575-8.259969c-.422084.602531-.922974,1.14581-1.489315,1.615333-.489675.40593-1.048512.720279-1.649703.927958l-.927957-1.592421c.513859-.180963.996844-.439841,1.432033-.76757.442705-.347194.829136-.760673,1.145627-1.225821.21791-.287884.388104-.608946.504076-.95087.066515-.228198.066515-.470635,0-.698832-.041564-.186325-.152059-.350024-.30932-.458251-.19164-.149585-.445694-.192649-.675919-.114563-.279361.099062-.539167.246413-.76757.435338-.274951.217669-.561357.458251-.85922.733201s-.618639.526989-.950871.779027c-.320787.245129-.671028.449108-1.04252.607182-.361927.15065-.755426.209673-1.145627.171844-.418245-.061692-.813131-.231508-1.145627-.49262-.436048-.30327-.771236-.730234-.962326-1.22582-.198492-.555034-.234269-1.155216-.103107-1.729897.180162-.752356.515773-1.458692.985239-2.073584.353289-.49097.764912-.937215,1.225821-1.328927.42143-.364917.896751-.662482,1.409121-.882133l.962327,1.546596c-.442258.192901-.85497.447459-1.225821.756114-.351994.276692-.664246.600503-.927958.962326-.219456.285135-.386282.607137-.492619.950871-.072782.227258-.072782.471574,0,.698832.054325.189693.171466.355305.332231.469707.19832.144246.452993.186691.687377.114563.278971-.092303.536222-.240422.756113-.435339.263494-.217669.549901-.469707.847764-.744657s.630095-.538445.962327-.779026c.319572-.240799.665483-.444503,1.031064-.607182.361708-.151876.75459-.214737,1.145627-.183301.437709.038001.855267.201046,1.202908.469707.426608.307613.753307.733912.939414,1.225821.200175.558997.232046,1.164427.09165,1.741353-.172589.758496-.508842,1.470102-.985239,2.085041Zm4.926195-6.461336l-5.808328-5.201145-2.050672,2.291253-1.35184-1.214364l5.590659-6.243666l1.35184,1.202908-2.050672,2.291253l5.808328,5.212602-1.489315,1.661159Zm8.477639-8.534919l-5.945804-7.572594l3.276493-2.566204c.587718-.486926,1.270546-.845896,2.004847-1.053976.61275-.18408,1.266078-.18408,1.878828,0c.617607.220304,1.15588.619028,1.546596,1.145626.870596,1.009882,1.017076,2.45627.366601,3.620181-.369774.668175-.877447,1.250039-1.489315,1.706984L97.166094,77.91241l1.669373,2.095065-1.821546,1.44349Zm.423881-6.014541c.454184-.306662.783403-.765955.927958-1.294559.06805-.461091-.056708-.92987-.34496-1.296139s-.714561-.597731-1.178735-.63997c-.548446.023463-1.071333.23829-1.477859.607182l-1.408193,1.109047l2.060422,2.62808l1.421367-1.113641Zm7.973563-.343688l-4.960564-8.317251l3.574356-2.142322c.644529-.404395,1.366412-.669734,2.119409-.779026.633349-.090402,1.279287.009279,1.855916.286406c1.175401.628468,1.910378,1.851975,1.913197,3.184843-.028412.637965-.247937,1.252651-.630095,1.764265-.011204.014813-.022489.029569-.033842.044267l3.470722,1.571067-2.050672,1.225821-3.048524-1.370938c-.011044.006404-.022122.012763-.033212.019098l-1.671435.989375l1.407941,2.31003-1.913197,1.214365Zm1.168539-5.911435c.508647-.229618.916009-.63698,1.145627-1.145627.121082-.448478.055426-.926869-.181983-1.326154s-.62636-.68544-1.078206-.793255c-.549764-.049617-1.098954.100907-1.546596.423882l-1.572877.939253l1.691197,2.823214l1.542838-.921313Zm8.294339.504076l-4.112801-8.695307l2.02776-.962327l4.135713,8.695308-2.050672.962326Zm9.142102-3.666006c-.661428.253527-1.365313.377977-2.073585.366601-.658964-.007515-1.309658-.147775-1.913197-.412426-.591693-.272224-1.121797-.662-1.558052-1.145627-.466339-.50254-.825012-1.095127-1.053977-1.741352-.234567-.641276-.339701-1.322695-.309319-2.004847.038619-.650373.210177-1.285909.504076-1.867372.272659-.584808.662596-1.107329,1.145627-1.53514.536875-.460805,1.154482-.818161,1.821546-1.053977.731483-.274457,1.510658-.399125,2.291254-.3666.719373.040498,1.418595.252622,2.039216.618638l-.905046,1.729897c-.403386-.234808-.85285-.37942-1.31747-.423882-.458778-.047326-.92223.015512-1.35184.1833-.421213.128849-.811253.343367-1.145627.630095-.29029.26165-.52755.576686-.698832.927958-.163951.360276-.253562.749927-.263494,1.145626-.007344.425291.062528.848383.206212,1.248734.138243.419551.356061.808526.641551,1.145626.262773.293957.582322.531674.939414.698833.359326.166734.749561.256494,1.145627.263494.42237.01951.844075-.050763,1.237277-.206213.432394-.149069.824485-.396089,1.145627-.721745.319767-.328038.56925-.717861.733201-1.145627l1.810091.744658c-.236721.67718-.629133,1.289334-1.145627,1.787178-.560899.500707-1.21488.886096-1.924653,1.13417Zm7.595505-4.284644l5.109496-1.145627.389513,1.752809-7.263274,1.649703-2.130866-9.39414l7.09143-1.603878.389513,1.741353-4.926195,1.145627.456005,1.991638l4.355628-.994943.389513,1.706984-4.356773.984139.49601,2.166335Zm12.934127-5.945803c-.353414.03493-.705958-.074306-.977712-.302915s-.439703-.557268-.465778-.91145c-.049216-.365111.063812-.733476.30932-1.008151.230672-.269131.562399-.430848.916501-.446795.358146-.045596.718801.063182.991987.299227s.433173.577075.440047.93805c.042124.35204-.066011.705546-.297863.973783-.232757.2681-.562366.43291-.916502.458251Z" transform="translate(-1.97245 4.835)" fill="#fff"/><circle r="78" transform="translate(150 150)" fill="#fcf60a"/><ellipse rx="8" ry="22" transform="translate(132 128)"/><ellipse rx="8" ry="22" transform="translate(168 128)"/><path d="M48,0C48,26.509668,26.509668,48,0,48s-48-21.490332-48-48" transform="translate(150 148)" fill="none" stroke="#000" stroke-width="4" stroke-linecap="round"/><path d="M117.116842,141.595608c0,1.097562-3.061574,4-6.855,4s-6.855-3.207316-6.855-4" transform="translate(-8.261842 2.371344)" fill="none" stroke="#000" stroke-width="4" stroke-linecap="round" stroke-miterlimit="10"/><path d="M117.116842,141.595608c0,1.097562-3.061574,4-6.855,4s-6.855-3.207316-6.855-4" transform="translate(87.738158 2.371344)" fill="none" stroke="#000" stroke-width="4" stroke-linecap="round" stroke-miterlimit="10"/><path d="M117.116842,141.595608c0,1.097562-3.061574,4-6.855,4s-6.855-3.207316-6.855-4" transform="translate(-8.261842 2.371344)" fill="none" stroke="#000" stroke-width="4" stroke-linecap="round" stroke-miterlimit="10"/></g><g id="e1UIE385NBt12" transform="matrix(.428571 0 0 0.428571 217.877143 265.285714)"><rect id="e1UIE385NBt13" width="174.999869" height="61.249954" rx="28" ry="28" transform="matrix(1 0 0 1-8.375042-5.249997)" opacity="0.2" fill="#112346" stroke-width="0"/><path id="e1UIE385NBt14" d="M100.296,8.840967h1.86105v8.05706h-1.86105v-8.05706Zm.93793-1.32776c-.33752,0-.62035-.10561-.84864-.31684-.22829-.22129-.34251-.49288-.34251-.81477s.11422-.58843.34251-.79967c.22829-.22129.51112-.33193.84864-.33193s.62035.10562.84864.31685c.22829.20117.34251.45766.34251.76949c0,.33195-.11422.61358-.34251.84494-.21832.22129-.5013.33193-.84864.33193Zm17.50762,4.76743v4.61696h-1.86105v-4.37556c0-.70411-.16378-1.23218-.49133-1.58425-.32755-.3621-.7941-.54316-1.39949-.54316-.68501,0-1.2259.21123-1.62294.63369-.39705.41241-.59557,1.0109-.59557,1.7955v4.07379h-1.86105v-11.19538h1.86105v4.07379c.30776-.33195.68486-.58341,1.13162-.75441.45658-.18106.96271-.27159,1.51855-.27159c1.00259,0,1.80651.29673,2.41206.8902.60539.59346.90817,1.4736.90817,2.64042h-.00002Zm-11.14925,4.72426c-.87342,0-1.54846-.23136-2.02483-.69407-.47652-.46269-.71478-1.13663-.71478-2.02181v-3.87763h-1.3102v-1.50882h1.3102v-1.84075h1.8612v1.84075h2.12908v1.50882h-2.12908v3.83237c0,.39231.09428.69407.28283.9053.18855.20117.46156.30176.81888.30176.41684,0,.76433-.11065,1.04218-.33195l.52109,1.34285c-.21832.18106-.48634.31685-.80392.40738-.30776.09053-.63531.13579-.98265.13579v.00001Zm-13.2957-.10591l-2.05474-5.55243-2.08436,5.55243h-1.78672l-2.91819-8.05706h1.75696l2.09931,5.94472l2.18861-5.94472h1.56327l2.14403,5.97489l2.15884-5.97489h1.65271l-2.93315,8.05706h-1.78657Zm-13.58488-3.98495c0,.13076-.00982.31685-.02976.55826h-6.23841c.10923.59347.39221,1.06623.84879,1.41829.4664.34199,1.04218.51299,1.72704.51299.87342,0,1.59303-.2917,2.15884-.87511l.99761,1.16179c-.35731.43252-.80906.75943-1.35492.98072s-1.16138.33195-1.84625.33195c-.87342,0-1.64274-.17603-2.30766-.52808-.66507-.35206-1.18118-.83991-1.54846-1.46355-.35731-.63369-.53605-1.34787-.53605-2.14251c0-.78458.17375-1.48869.52109-2.11234.35731-.63371.84864-1.12657,1.47398-1.47863s1.33015-.52808,2.11427-.52808c.77415,0,1.464.17603,2.06955.52808.61537.34199,1.09189.82985,1.42926,1.46354.34749.62364.52109,1.34788.52109,2.1727l-.00001-.00002Zm-4.01989-2.65551c-.59557,0-1.1017.18106-1.5187.54318-.40687.35206-.6551.82481-.74439,1.41829h4.51122c-.07932-.58341-.32256-1.05617-.72943-1.41829-.40702-.36212-.9133-.54318-1.5187-.54318Zm-7.67538,6.63907v-1.04108c-.30776.38223-.68985.66889-1.14643.86002-.44676.19112-.94291.28668-1.48893.28668-.76433,0-1.45403-.17101-2.06955-.51301-.60539-.34199-1.08191-.82481-1.42925-1.44846-.34749-.63369-.52109-1.35793-.52109-2.17268s.17359-1.53397.52109-2.1576c.34734-.62364.82386-1.10646,1.42925-1.44846.61552-.34201,1.30522-.51301,2.06955-.51301.52607,0,1.00743.09053,1.44421.27159s.8089.45265,1.11666.81477v-4.13414h1.86105v11.19538h-1.78656Zm-.35731-2.70078c.20834-.38223.31259-.82481.31259-1.32774s-.10425-.94553-.31259-1.32776c-.2085-.38223-.49133-.67394-.84864-.87511-.35746-.21125-.75935-.31685-1.2061-.31685-.4466,0-.84864.10561-1.20595.31685-.35731.20117-.64014.49288-.84864.87511s-.31259.82481-.31259,1.32776.1041.94551.31259,1.32774.49132.67897.84864.8902c.35731.20118.75935.30176,1.20595.30176.44676,0,.84864-.10058,1.2061-.30176.35731-.21123.64014-.50796.84864-.8902ZM56.93698,8.749727c1.1712,0,2.06456.28667,2.67993.86002.62534.56329.93793,1.41829.93793,2.56499v4.72257h-1.75681v-.98072c-.22829.35206-.55584.62363-.98265.81475-.41699.18106-.92312.27159-1.5187.27159s-1.11666-.10059-1.56327-.30176c-.44671-.21125-.79411-.49791-1.04225-.86003-.23823-.37217-.35733-.78961-.35733-1.25231c0-.72424.26304-1.30262.7891-1.73514.536-.44259,1.37467-.66388,2.51626-.66388h2.05459v-.1207c0-.56329-.16876-.99581-.50628-1.29757-.32755-.30178-.81888-.45265-1.47398-.45265-.4466,0-.88837.0704-1.32501.21123-.42681.14083-.78911.33696-1.08691.58844l-.72956-1.37302c.41689-.32189.91812-.56832,1.50373-.73932s1.20595-.2565,1.8612-.2565l.00001.00001Zm-.25322,6.88017c.46655,0,.8784-.10562,1.23587-.31685.36714-.22129.62519-.53312.77415-.93545v-.93547h-1.92073c-1.07194,0-1.60784.35709-1.60784,1.07126c0,.34199.13386.61357.40188.81475s.6403.30176,1.11666.30176h.00001Zm-10.69116.06065h-.86354l-3.42441-5.7033v6.91036h-1.8462v-10.56169h1.59309l4.13907,7.00089l4.06463-7.00089h1.59309l.01488,10.56169h-1.8313l-.0149-7.00089-3.42441,5.79383ZM109.33381,29.33985v15.15h-3.372v-1.962c-.57764.71189-1.32435,1.2678-2.172,1.617-.90563.36793-1.87555.55151-2.853.54-1.37977.02378-2.74245-.30785-3.957-.963-1.13745-.62625-2.07375-1.56255-2.7-2.7-1.30391-2.56373-1.30391-5.59627,0-8.16.6281-1.13606,1.56394-2.0719,2.7-2.7c1.21546-.65275,2.57751-.98423,3.957-.963.92501-.00857,1.84259.16578,2.7.513.8172.33509,1.54983.84741,2.145,1.5v-.762c0-.28643.11378-.56114.31633-.76367s.47724-.31633.76367-.31633l2.472-.03Zm-4.767,11.01c1.70241-1.9736,1.70241-4.8964,0-6.87-1.79985-1.74394-4.65915-1.74394-6.459,0-1.68467,1.98016-1.68467,4.88984,0,6.87.84101.87157,2.01145,1.34672,3.222,1.308c1.21374.03854,2.38799-.43377,3.237-1.302v-.006Zm17.94,3.324c-.4506.35546-.96927.61479-1.524.762-.61408.17233-1.2492.25816-1.887.255-1.41013.09088-2.79902-.37927-3.864-1.308-.9622-1.0234-1.45181-2.403-1.35-3.804v-13.59h2.469c.28643,0,.56114.11378.76367.31633s.31633.47724.31633.76367v2.379h4.047v2.853h-4.047v7.2c-.04376.61441.15433,1.2216.552,1.692.40613.41048.96838.62774,1.545.597.22613.00135.45196-.01672.675-.054.80958-.16952,1.6251.26156,1.941,1.026l.363.912Zm5.079.027c-1.20043-.63362-2.19844-1.59212-2.88-2.766-1.3796-2.49392-1.3796-5.52208,0-8.016.68541-1.16705,1.68279-2.11975,2.88-2.751c2.61457-1.32565,5.70443-1.32565,8.319,0c1.19702.63151,2.19433,1.58416,2.88,2.751c1.3796,2.49392,1.3796,5.52208,0,8.016-.68182,1.17368-1.67976,2.13211-2.88,2.766-2.61457,1.32565-5.70443,1.32565-8.319,0Zm7.392-3.369c1.70241-1.9736,1.70241-4.8964,0-6.87-1.79985-1.74394-4.65915-1.74394-6.459,0-1.68467,1.98016-1.68467,4.88984,0,6.87.84101.87157,2.01145,1.34672,3.222,1.308c1.21059.04404,2.38438-.42048,3.237-1.281v-.027Zm17.022-11.16v3.372c-.27077-.05406-.54592-.08318-.822-.087-1.19439-.06706-2.36247.36798-3.222,1.2-.83467.95959-1.25439,2.2112-1.167,3.48v7.353h-3.552v-15.15h2.298c.28643,0,.56113.11379.76367.31633s.31633.47724.31633.76367v1.134c1.014-1.588,2.809-2.382,5.385-2.382Zm-107.022,15.042c-.99952-.24447-1.95011-.65737-2.811-1.221l.621-1.233c.3744-.7399,1.2508-1.07278,2.022-.768.37389.15524.75654.28847,1.146.399.91807.26884,1.86939.4072,2.826.411c2.118,0,3.179-.557,3.183-1.671.01432-.51063-.31898-.96614-.81-1.107-.84397-.28199-1.7129-.4829-2.595-.6-1.03337-.14877-2.05419-.3744-3.054-.675-.77526-.24876-1.47221-.69547-2.022-1.296-.61143-.71083-.9214-1.63215-.864-2.568-.02956-1.38298.6493-2.68527,1.8-3.453c1.44674-.93234,3.1502-1.38576,4.869-1.296c1.05397.00022,2.10457.11896,3.132.354.90209.18897,1.76874.51902,2.568.978l-.675,1.296c-.363.73034-1.21602,1.07232-1.983.795-.9848-.3605-2.02631-.54137-3.075-.534-.81824-.04818-1.63519.11397-2.373.471-.48302.22293-.79719.70118-.81,1.233-.01041.54748.34149,1.03623.864,1.2.87464.31646,1.77934.54264,2.7.675c1.00825.15143,2.00395.37704,2.979.675.77042.2345,1.46702.66444,2.022,1.248.59601.69214.89656,1.59055.837,2.502.02092,1.37985-.67962,2.67062-1.848,3.405-1.50499.92728-3.25673,1.37412-5.022,1.281-1.22607-.00259-2.44614-.17112-3.627-.501Zm44.883-14.874v12.858c0,5.336-2.724,8.004-8.172,8.004-1.40084.00811-2.79608-.17765-4.146-.552-1.17835-.30549-2.28055-.85199-3.237-1.605l1.026-1.713c.30567-.49262.95204-.6455,1.446-.342.51805.29338,1.06493.53264,1.632.714.99571.32459,2.03673.48864,3.084.486c1.664,0,2.884-.378,3.66-1.134.84612-.94702,1.26781-2.19906,1.167-3.465v-.795c-.61114.66419-1.36796,1.17763-2.211,1.5-.91436.34924-1.88627.52327-2.865.513-1.35633.0185-2.69615-.29893-3.9-.924-1.14224-.59206-2.09694-1.49066-2.757-2.595-.68212-1.15978-1.02996-2.48573-1.005-3.831-.02691-1.34077.32116-2.66242,1.005-3.816.65985-1.09557,1.61266-1.98501,2.751-2.568c1.20751-.61258,2.54617-.9215,3.9-.9c1.02537-.01399,2.04386.16934,3,.54.88145.34534,1.65934.91145,2.259,1.644v-.936c0-.28643.11379-.56114.31633-.76367s.47724-.31633.76367-.31633l2.283-.003Zm-4.782,10.263c.86632-.80774,1.34014-1.95125,1.299-3.135.03647-1.17094-.43625-2.30022-1.296-3.096-1.9293-1.58787-4.7127-1.58787-6.642,0-.85642.7974-1.32577,1.92647-1.287,3.096-.04421,1.18189.4251,2.3251,1.287,3.135c1.92186,1.60535,4.71714,1.60535,6.639,0Zm-12.057-10.278l-5.892,13.743c-.36888.86087-1.21443,1.41985-2.151,1.422h-1.902l5.763-13.404.3-.675c.28294-.65223.92704-1.07338,1.638-1.071l2.244-.015Zm-10.785,13.263l-5.889-13.236h2.511c.71819-.00121,1.36666.42953,1.644,1.092l3.492,8.046-1.758,4.098Z" opacity="0.8" clip-rule="evenodd" fill="#fff" fill-rule="evenodd"/><g id="e1UIE385NBt15" transform="matrix(.3 0 0 0.3-18.12243-25.905895)" opacity="0.8" mask="url(#e1UIE385NBt17)"><path id="e1UIE385NBt16" d="M129.5,243.58426c-8.76,2.18-20.08,1.79-37.33-19.63-2.35828-2.9281-4.38181-6.36293-5.93416-10.02849c3.00814.97918,6.21933,1.50849,9.55416,1.50849c17.03246,0,30.84-13.80754,30.84-30.84c0-5.42003-1.39819-10.5135-3.85355-14.93939c22.54068-3.14789,48.24701-1.18662,56.01355,6.19939c12.32,11.73-14.11,59.03-49.29,67.73Z" fill="#fff"/><mask id="e1UIE385NBt17" mask-type="alpha" x="-150%" y="-150%" height="400%" width="400%"><path id="e1UIE385NBt18" d="M78.37454,207.03926c0-31.45994,25.50332-56.96327,56.96327-56.96327s56.96327,25.50332,56.96327,56.96327-25.50332,56.96327-56.96327,56.96327-56.96327-25.50332-56.96327-56.96327Zm89.23546-4.715c-.16775-.93858-1.05962-1.56734-2-1.41h-.06c-4.15414.71597-8.30501-1.28258-10.33588-4.97651s-1.49439-8.26953,1.33588-11.39349c.33036-.3301.51598-.77798.51598-1.245s-.18561-.9149-.51598-1.245l-.11-.1c-2.70671-2.31865-5.78705-4.16144-9.11-5.45-.43613-.17299-.92328-.16468-1.35326.02308s-.76719.53944-.93674.97692v.06c-1.40364,3.98681-5.18789,6.63916-9.41438,6.59848s-7.95898-2.76539-9.28562-6.77848c-.13404-.44903-.44162-.82607-.85458-1.04757s-.8972-.26916-1.34542-.13243h-.11c-3.26392,1.21388-6.31249,2.94242-9.03,5.12-.37331.28196-.619.70095-.6828,1.16441s.05956.93325.3428,1.30559l.1.12c2.68294,3.2243,3.03751,7.79124.8844,11.39101s-6.34454,5.44763-10.4544,4.60899c-.45624-.10445-.9353-.02286-1.33126.22672s-.67619.6466-.77874,1.10328v.09c-.55386,3.43784-.55386,6.94217,0,10.38.06433.46505.31181.88512.68739,1.16681s.84815.40164,1.31261.33319h.11c4.15414-.71597,8.30501,1.28258,10.33588,4.97651s1.49439,8.26953-1.33588,11.39349c-.33036.3301-.51598.77798-.51598,1.245s.18561.9149.51598,1.245l.11.1c2.70914,2.30768,5.7893,4.14023,9.11,5.42.43613.17299.92328.16468,1.35326-.02308s.76719-.53944.93674-.97692v-.06c1.40815-3.97311,5.18194-6.61524,9.39704-6.57914s7.94308,2.7425,9.28296,6.73914c.13404.44903.44162.82607.85458,1.04757s.8972.26916,1.34542.13243h.11c3.30375-1.22537,6.38706-2.97809,9.13-5.19.37164-.28659.61343-.70974.67164-1.17542s-.07198-.93533-.36164-1.30458l-.1-.12c-2.83001-3.19588-3.28744-7.84789-1.13412-11.53378s6.43037-5.57199,10.60412-4.67622c.93041.23341,1.87421-.33019,2.11-1.26v-.09c.5347-3.37898.5347-6.82102,0-10.2Zm-41.67,4.69c0-5.197,4.213-9.41,9.41-9.41s9.41,4.213,9.41,9.41-4.213,9.41-9.41,9.41-9.41-4.213-9.41-9.41Z" fill="#fff" stroke-width="0"/></mask></g><path id="e1UIE385NBt19" d="M116.33,114.77l-3.64-2.18c-1.023263-.593162-1.652267-1.687247-1.65-2.87v-2c-.002267-1.182753.626737-2.276838,1.65-2.87l3.64-2.18c.762973-.435835,1.321342-1.157154,1.552062-2.005003s.114855-1.752643-.322062-2.514997v0l-1.74-3c-.935215-1.566004-2.961067-2.080293-4.53-1.15v0l-3.68,2.18c-1.024118.591275-2.285882.591275-3.31,0l-1.7-1c-1.023263-.593162-1.652267-1.687247-1.65-2.87v-4.38c0-.877867-.348731-1.719778-.969477-2.340523s-1.462656-.969477-2.340523-.969477h-3.47c-.877867,0-1.719778.348731-2.340523.969477s-.969477,1.462656-.969477,2.340523s0,.06,0,.09v4.35c.002267,1.182753-.626737,2.276838-1.65,2.87l-1.68,1c-1.024118.591275-2.285882.591275-3.31,0L80.56,94c-.767143-.448916-1.682599-.570435-2.540292-.337203s-1.585543.801616-2.019708,1.577203v0l-1.74,3c-.443418.7584-.567152,1.661967-.343945,2.511654s.775044,1.575787,1.533945,2.018346v0L79.1,105c1.023263.593162,1.652267,1.687247,1.65,2.87v2c.002267,1.182753-.626737,2.276838-1.65,2.87l-3.61,2.18c-1.578036.917936-2.114924,2.940216-1.2,4.52v0l1.74,3c.917936,1.578036,2.940216,2.114924,4.52,1.2v0l3.66-2.18c1.024118-.591275,2.285882-.591275,3.31,0l1.68,1c1.023263.593162,1.652267,1.687247,1.65,2.87v3.67c0,.877867.348731,1.719778.969477,2.340523s1.462656.969477,2.340523.969477h3.46c.877867,0,1.719778-.348731,2.340523-.969477s.969477-1.462656.969477-2.340523v0-3.77c-.002267-1.182753.626737-2.276838,1.65-2.87l1.7-1c1.024118-.591275,2.285882-.591275,3.31,0l3.66,2.18c1.5824.913239,3.605483.371662,4.52-1.21v0l1.74-3c.938839-1.568495.428452-3.601089-1.14-4.54Zm-20.49.91c-3.865993,0-7-3.134007-7-7s3.134007-7,7-7s7,3.134007,7,7v0c0,3.865993-3.134007,7-7,7v0Z" transform="matrix(.3 0 0 0.3-17.650844-2.6395)" opacity="0.8" fill="#fff"/></g>
<script><![CDATA[
!function(t,e){"object"==typeof exports&&"undefined"!=typeof module?module.exports=e():"function"==typeof __SVGATOR_DEFINE__&&__SVGATOR_DEFINE__.amd?__SVGATOR_DEFINE__(e):((t="undefined"!=typeof globalThis?globalThis:t||self).__SVGATOR_PLAYER__=t.__SVGATOR_PLAYER__||{},t.__SVGATOR_PLAYER__["5c7f360c"]=e())}(this,(function(){"use strict";const t=n(Math.pow(10,-6)),e=n(Math.pow(10,-2));function n(t,e=6){return function(t,e,n){if(Number.isInteger(t))return t;const r=Math.pow(10,e);return Math[n]((+t+Number.EPSILON)*r)/r}(t,e,"round")}function r(e,n,r=t){return Math.abs(e-n)<r}n(Math.pow(10,-4));const i=Math.PI/180;function s(t){return t*i}function o(t){return t/i}function u(t){return"number"!=typeof t&&(t=Number(t)),isNaN(t)||!isFinite(t)?0:t}let l={iD:!1};function a(t){return`${t}`.replace(/['"]/g,"")}function c(t,e="px"){return t.endsWith(e)?t:`${t}${e}`}function f(t=""){return l.iD?t:void 0}function h(t){const e=["^","\\s*","(matrix\\()","(?<a>-?[0-9]*\\.?[0-9]+)","\\s*",",?","\\s*","(?<b>-?[0-9]*\\.?[0-9]+)","\\s*",",?","\\s*","(?<c>-?[0-9]*\\.?[0-9]+)","\\s*",",?","\\s*","(?<d>-?[0-9]*\\.?[0-9]+)","\\s*",",?","\\s*","(?<e>-?[0-9]*\\.?[0-9]+)","\\s*",",?","\\s*","(?<f>-?[0-9]*\\.?[0-9]+)","\\)"].join(""),n=t.match(new RegExp(e,"i"));if(n)return[u(n.groups.a),u(n.groups.b),u(n.groups.c),u(n.groups.d),u(n.groups.e),u(n.groups.f)]}function d(t,e="inline"){return t&&t!==e?(t=a(t))===e?f(e):t:f(e)}function g(t,e="1px"){if(!t||t===e)return f(e);if(t.endsWith("px")||t.endsWith("%"))return t;const r=c(t=`${n(u(t),2)}`);return r===e?f(e):r}function p(t,e="none"){return t&&t!==e?(t=a(t))===e?f(e):t.startsWith("url(#")?t:function(t){const e=["^","\\s*","url\\(","#","(?<maskId>[a-zA-Z0-9\\-_]+)","\\)"].join(""),n=t.match(new RegExp(e,"i"));if(n)return`url(#${n.groups.maskId})`}(t):f(e)}function y(t,e="rgb(0, 0, 0)"){if(!t||t===e)return f(e);if((t=a(t))===e)return f(e);if(t.startsWith("rgb"))return t;const n=function(t){const e=["^","\\s*","#","(?<red>[0-9A-Z]{1,2})","(?<green>[0-9A-Z]{1,2})","(?<blue>[0-9A-Z]{1,2})"].join(""),n=t.match(new RegExp(e,"i"));if(!n)return t;const r=t=>parseInt(t.length>1?t:`${t}${t}`,16);return`rgb(${r(n.groups.red)}, ${r(n.groups.green)}, ${r(n.groups.blue)})`}(t);return n===e?f(e):n}function m(t,e="1"){return t&&t!==e?(t=`${n(u(t),3)}`)===e?f(e):t:f(e)}let b={};const v={fill:"none",stroke:"none",opacity:"0.01",transform:"matrix(0.001 0 0 0.001 -10000 -10000)"};function w({element:t,tagType:e="path",property:n="d",attributeValue:r}){return b[r]||(b[r]=function({element:t,tagType:e="path",property:n="d",attributeValue:r}){const i=t.ownerSVGElement,s=document.createElementNS(i.namespaceURI,e);s.setAttributeNS(null,n,r);for(const t in v)s.setAttributeNS(null,t,v[t]);i.appendChild(s);const o=getComputedStyle(s)[n];return s.remove(),o}({element:t,tagType:e,property:n,attributeValue:r})),b[r]}const x=()=>{b={}};"object"==typeof window&&(window.removeEventListener("resize",x),window.addEventListener("resize",x));const A={include:(t,e)=>["path"].includes(e),formatter:t=>function(t,e=""){return t&&t!==e?(t=a(t))===e?f(e):t.startsWith("path(")?t:`path('${t}')`:f(e)}(t)},_={include:(t,e)=>["rect","mask"].includes(e),formatter:(t,e,n)=>g(t,function(t,e){var n;return(null===(n={mask:{x:"-150%",y:"-150%",width:"400%",height:"400%"}}[e])||void 0===n?void 0:n[t])||(["x","y"].includes(t)?"0px":"100%")}(e,n))},S=Object.freeze({d:A,display:t=>d(t),height:_,fill:t=>y(t),"fill-opacity":t=>m(t),filter:t=>d(t,"none"),mask:t=>p(t),opacity:t=>m(t),stroke:t=>y(t,"none"),"stroke-opacity":t=>m(t),"stroke-width":t=>g(t),transform:t=>function(t,e="none"){if(!t||t===e)return f(e);const n=h(t);return n?`matrix(${n.join(", ")})`:t}(t),"transform-origin":t=>function(t,e="0px 0px"){if(!t||t===e)return f(e);const n=["^","\\s*","(?<x>[0-9]+)","(px)?","\\s*",",","\\s*","(?<y>[0-9]+)","(px)?"].join(""),r=t.match(new RegExp(n,"i"));if(!r)return t;let i=`${u(r.groups.x)}`;i=c(i);let s=`${u(r.groups.y)}`;s=c(s);const o=`${i} ${s}`;return o===e?f(e):o}(t),visibility:t=>d(t,"visible"),width:_,x:_,y:_}),k=Object.keys(S),E=e;function M(t,e,n,i,s=window){var o,u;const l=t.getAttribute(e),a="transform"===e?"none":"",c=s.safari&&!s.chrome&&(null===(o=i.getPropertyValue)||void 0===o?void 0:o.call(i,e))===a||"mask"===n?l:null===(u=i.getPropertyValue)||void 0===u?void 0:u.call(i,e);if(l&&c){if(l===c)return l;switch(e){case"transform":return function(t,e){const n=h(t),i=h(e);if((null==n?void 0:n.length)===(null==i?void 0:i.length)){for(let t=0,e=n.length;t<e;t++)if(n[t]!==i[t]&&(s=i[t],!r(((o=n[t])-s)/(o||1)*100,0,E)))return;var s,o;return t}}(l,c);case"d":return function(t,e,n){return w({element:t,attributeValue:e})===n?e:void 0}(t,l,c);default:return c}}}function I(t,e,n,r){var i,s,o,u;const l="transform"===e||["mask","path"].includes(n)&&["x","y","width","height","d"].includes(e);return r&&l?M(t,e,n,r):(null===(i=r.getPropertyValue)||void 0===i?void 0:i.call(r,e))??(null===(s=t.attrs)||void 0===s||null===(o=s.style)||void 0===o?void 0:o[e])??(null===(u=t.attrs)||void 0===u?void 0:u[e])}function N(t,e,n=!1){l.iD=n;const r="undefined"!=typeof window&&getComputedStyle(t),i={};for(let l=0,a=k.length;l<a;l++){var s,o,u;const a=k[l],c=t.type||t.nodeName;if(!1===(null===(s=(o=S[a]).include)||void 0===s?void 0:s.call(o,a,c)))continue;const f=S[a].formatter||S[a];if(null!=e&&null!==(u=e[t.id])&&void 0!==u&&u[a])continue;const h=I(t,a,c,r);if(null==h&&!n)continue;const d=f.call(this,h,a,c);d&&(i[a]=d)}return i}function j(t){var e,n;if(null==t||null===(e=t.wD)||void 0===e||!e.length)return;this.h=t.wD.shift();const r=null===(n=t.rootId)||void 0===n?void 0:n.slice(0,-1);this.wIs=t.wD.map((t=>`${r}${t}`))}function B(t){const e=new j(t),n=t.svg,r=e.wIs,i=t.originalAnimations[0].elements,s=e.h;function o(t,e,s){var u;if(e[t])return;const l=n.querySelector("#"+t),a=null==l||null===(u=l.parentElement)||void 0===u?void 0:u.id;if(l&&a){if(r.includes(a))return e[a]||o(a,e,s),e[a].children??=[],e[t]=N(l,i),void e[a].children.push(e[t]);e[t]=N(l,i),s.push(e[t])}}async function u(){const t=function(){let t=[],e={};for(let n=0,i=r.length;n<i;n++)o(r[n],e,t);return t}();return await async function(t){var e,n;const r=JSON.stringify(t),i=(new TextEncoder).encode(r),o=await(null===(e=window.crypto)||void 0===e||null===(n=e.subtle)||void 0===n?void 0:n.digest("SHA-256",i));return o&&Array.from(new Uint8Array(o)).map((t=>t.toString(16).padStart(2,"0"))).join("")||s}(t)}this.vH=async function(){await u()!==s&&requestAnimationFrame((()=>t.stop()))}}function O(t){let e=0,n=0;const r=new B(t);this.cF=function(i,s){return t.wD?(e++,function(t){return!(t-n<300)&&(t-n>=500||e>=3)}(i)?(e=0,n=i,window.requestAnimationFrame((()=>r.vH())),s()):s()):s()}}function T(t){return t}function F(t,e,n){const r=1-n;return 3*n*r*(t*r+e*n)+n*n*n}function V(t=0,e=0,n=1,i=1){return t<0||t>1||n<0||n>1?null:r(t,e)&&r(n,i)?T:s=>{if(s<=0)return t>0?s*e/t:0===e&&n>0?s*i/n:0;if(s>=1)return n<1?1+(s-1)*(i-1)/(n-1):1===n&&t<1?1+(s-1)*(e-1)/(t-1):1;let o,u=0,l=1;for(;u<l;){o=(u+l)/2;const e=F(t,n,o);if(r(s,e))break;e<s?u=o:l=o}return F(e,i,o)}}function R(){return 1}function C(t){return 1===t?1:0}function P(t=1,e=0){if(1===t){if(0===e)return C;if(1===e)return R}const n=1/t;return t=>t>=1?1:(t+=e*n)-t%n}Number.isInteger||(Number.isInteger=function(t){return"number"==typeof t&&isFinite(t)&&Math.floor(t)===t}),Number.EPSILON||(Number.EPSILON=2220446049250313e-31);const $=Math.sin,D=Math.cos,L=Math.acos,q=Math.asin,z=Math.tan,G=Math.atan2,W=Math.sqrt;function Y(t,e){return{a:t[0]*e[0]+t[2]*e[1],b:t[1]*e[0]+t[3]*e[1],c:t[0]*e[2]+t[2]*e[3],d:t[1]*e[2]+t[3]*e[3],tx:t[0]*e[4]+t[2]*e[5]+t[4],ty:t[1]*e[4]+t[3]*e[5]+t[5]}}function U(t,e,n){return t>=.5?n:e}function H(t,e,n){return 0===t||e===n?e:t*(n-e)+e}function Z(t,e,n){const r=H(t,e,n);return r<=0?0:r}function J(t,e,n){const r=H(t,e,n);return r<=0?0:r>=1?1:r}function Q(t,e,n){return 0===t?e:1===t?n:{x:H(t,e.x,n.x),y:H(t,e.y,n.y)}}function X(t,e,n){return 0===t?e:1===t?n:{x:Z(t,e.x,n.x),y:Z(t,e.y,n.y)}}function K(t,e,n){const r=function(t,e,n){return Math.round(H(t,e,n))}(t,e,n);return r<=0?0:r>=255?255:r}function tt(t,e,n){return 0===t?e:1===t?n:{r:K(t,e.r,n.r),g:K(t,e.g,n.g),b:K(t,e.b,n.b),a:H(t,null==e.a?1:e.a,null==n.a?1:n.a)}}function et(t,e,n){let r=e.length;if(r!==n.length)return U(t,e,n);let i=new Array(r);for(let s=0;s<r;s++)i[s]=H(t,e[s],n[s]);return i}function nt(t,e){const n=[];for(let r=0;r<t;r++)n.push(e);return n}function rt(t,e){if(--e<=0)return t;const n=(t=Object.assign([],t)).length;do{for(let e=0;e<n;e++)t.push(t[e])}while(--e>0);return t}class it{constructor(t){this.list=t,this.length=t.length}setAttribute(t,e){const n=this.list;for(let r=0;r<this.length;r++)n[r].setAttribute(t,e)}removeAttribute(t){const e=this.list;for(let n=0;n<this.length;n++)e[n].removeAttribute(t)}style(t,e){const n=this.list;for(let r=0;r<this.length;r++)n[r].style[t]=e}}const st=/-./g,ot=(t,e)=>e.toUpperCase();let ut;function lt(t){return"function"==typeof t?t:U}function at(t){return t?"function"==typeof t?t:Array.isArray(t)?function(t,e=T){if(!Array.isArray(t))return e;switch(t.length){case 1:return P(t[0])||e;case 2:return P(t[0],t[1])||e;case 4:return V(t[0],t[1],t[2],t[3])||e}return e}(t,null):function(t,e,n=T){switch(t){case"linear":return T;case"steps":return P(e.steps||1,e.jump||0)||n;case"bezier":case"cubic-bezier":return V(e.x1||0,e.y1||0,e.x2||0,e.y2||0)||n}return n}(t.type,t.value,null):null}function ct(t,e,n,r=!1){const i=e.length-1;if(t<=e[0].t)return r?[0,0,e[0].v]:e[0].v;if(t>=e[i].t)return r?[i,1,e[i].v]:e[i].v;let s,o=e[0],u=null;for(s=1;s<=i;s++){if(!(t>e[s].t)){u=e[s];break}o=e[s]}return null==u?r?[i,1,e[i].v]:e[i].v:o.t===u.t?r?[s,1,u.v]:u.v:(t=(t-o.t)/(u.t-o.t),o.e&&(t=o.e(t)),r?[s,t,n(t,o.v,u.v)]:n(t,o.v,u.v))}function ft(t,e,n=null){return t&&t.length?"function"!=typeof e?null:("function"!=typeof n&&(n=null),r=>{let i=ct(r,t,e);return null!=i&&n&&(i=n(i)),i}):null}function ht(t,e){return t.t-e.t}function dt(t,e,n,r,i){const s="@"===n[0],o="#"===n[0];let u=ut[n],l=U;var a;switch(s?(a=n.substr(1),n=a.replace(st,ot)):o&&(n=n.substr(1)),typeof u){case"function":if(l=u(r,i,ct,at,n,s,e,t),o)return l;break;case"string":l=ft(r,lt(u));break;case"object":if(l=ft(r,lt(u.i),u.f),l&&"function"==typeof u.u)return u.u(e,l,n,s,t)}return l?function(t,e,n,r=!1){if(r)return t instanceof it?r=>t.style(e,n(r)):r=>t.style[e]=n(r);if(Array.isArray(e)){const r=e.length;return i=>{const s=n(i);if(null==s)for(let n=0;n<r;n++)t[n].removeAttribute(e);else for(let n=0;n<r;n++)t[n].setAttribute(e,s)}}return r=>{const i=n(r);null==i?t.removeAttribute(e):t.setAttribute(e,i)}}(e,n,l,s):null}function gt(t,e,n,r){if(!r||"object"!=typeof r)return null;let i=null,s=null;return Array.isArray(r)?s=function(t){if(!t||!t.length)return null;for(let e=0;e<t.length;e++)t[e].e&&(t[e].e=at(t[e].e));return t.sort(ht)}(r):(s=r.keys,i=r.data||null),s?dt(t,e,n,s,i):null}function pt(t,e,n){if(!n)return null;const r=[];for(const i in n)if(n.hasOwnProperty(i)){const s=gt(t,e,i,n[i]);s&&r.push(s)}return r.length?r:null}function yt(t,e){if(!e.settings.duration||e.settings.duration<0)return null;const n=function(t,e){if(!e)return null;let n=[];if(Array.isArray(e)){const r=e.length;for(let i=0;i<r;i++){const r=e[i];if(2!==r.length)continue;let s=null;if("string"==typeof r[0])s=t.getElementById(r[0]);else if(Array.isArray(r[0])){s=[];for(let e=0;e<r[0].length;e++)if("string"==typeof r[0][e]){const n=t.getElementById(r[0][e]);n&&s.push(n)}s=s.length?1===s.length?s[0]:new it(s):null}if(!s)continue;const o=pt(t,s,r[1]);o&&(n=n.concat(o))}}else for(const r in e){if(!e.hasOwnProperty(r))continue;const i=t.getElementById(r);if(!i)continue;const s=pt(t,i,e[r]);s&&(n=n.concat(s))}return n.length?n:null}(t,e.elements);return n?function(t,e){const n=e.duration,r=t.length;let i=null;return(s,o)=>{const u=e.iterations||1/0,l=(e.alternate&&u%2==0)^e.direction>0?n:0;let a=s%n,c=1+(s-a)/n;o*=e.direction,e.alternate&&c%2==0&&(o=-o);let f=!1;if(c>u)a=l,f=!0,-1===e.fill&&(a=e.direction>0?0:n);else if(o<0&&(a=n-a),a===i)return!1;i=a;for(let e=0;e<r;e++)t[e](a);return f}}(n,e.settings):null}function mt(t,e=document,n=0){const r=function(t,e){const n=e.querySelectorAll("svg");for(let e=0;e<n.length;e++)if(n[e].id===t.root&&!n[e].svgatorAnimation)return n[e].svgatorAnimation=!0,n[e];return null}(t,e);if(r)return r;if(n>=20)return null;const i=function(t){const e=t=>t.shadowRoot;return document?Array.from(t.querySelectorAll(":not("+["a","area","audio","br","canvas","circle","datalist","embed","g","head","hr","iframe","img","input","link","object","path","polygon","rect","script","source","style","svg","title","track","video"].join()+")")).filter(e).map(e):[]}(e);for(let e=0;e<i.length;e++){const r=mt(t,i[e],n+1);if(r)return r}return null}function bt(t,e=null,n=Number,r="undefined"!=typeof BigInt&&BigInt){const i="0x"+(t.replace(/[^0-9a-fA-F]+/g,"")||27);return e&&r&&n.isSafeInteger&&!n.isSafeInteger(+i)?n(r(i))%e+e:+i}function vt(t,e=27){return!t||t%e?t%e:[0,1].includes(e)?e:vt(t/e,e)}function wt(t,e,n){if(!t||!t.length)return;const r=bt(n),i=vt(r)+5;let s=function(t,e,n){let r="";for(;t&&n&&e<=t.length;)r+=t.substring(0,e),t=t.substring(e+1),e=n;return r+t}(t,vt(r,5),i);return s=s.replace(/\x7c$/g,"==").replace(/\x2f$/g,"="),s=atob(s),s=s.replace(/[\x41-\x5A]/g,""),s=function(t,e,n){const r=+("0x"+t.substring(0,4));t=t.substring(4);const i=bt(e,r)%r+n%27,s=[];for(let e=0;e<t.length;e+=2){if("|"===t[e]){const n=+("0x"+t.substring(e+1,e+1+4))-i;e+=3,s.push(n);continue}const n=+("0x"+t[e]+t[e+1])-i;s.push(n)}return String.fromCharCode(...s)}(s,e,r),s=JSON.parse(s),s}const xt=[{key:"alternate",def:!1},{key:"fill",def:1},{key:"iterations",def:0},{key:"direction",def:1},{key:"speed",def:1},{key:"fps",def:100}];function At(t){return n(t)+""}function _t(t,e=" "){return t&&t.length?t.map(At).join(e):""}function St(t){return At(t.x)+","+At(t.y)}function kt(t){return t?null==t.a||t.a>=1?function(t){if(!t)return"transparent";const e=t=>parseInt(t).toString(16).padStart(2,"0");return function(t){const e=[];let n="#"===t[0]?e.push("#"):0;for(;n<t.length;n+=2){if(t[n]!==t[n+1])return t;e.push(t[n])}return e.join("")}("#"+e(t.r)+e(t.g)+e(t.b)+(null==t.a||t.a>=1?"":e(255*t.a)))}(t):"rgba("+t.r+","+t.g+","+t.b+","+t.a+")":"transparent"}function Et(t){return t?"url(#"+t+")":"none"}!function(){for(var t=0,e=["ms","moz","webkit","o"],n=0;n<e.length&&!window.requestAnimationFrame;++n)window.requestAnimationFrame=window[e[n]+"RequestAnimationFrame"],window.cancelAnimationFrame=window[e[n]+"CancelAnimationFrame"]||window[e[n]+"CancelRequestAnimationFrame"];window.requestAnimationFrame||(window.requestAnimationFrame=function(e){var n=Date.now(),r=Math.max(0,16-(n-t)),i=window.setTimeout((function(){e(n+r)}),r);return t=n+r,i},window.cancelAnimationFrame=window.clearTimeout)}();var Mt={f:null,i:X,u:(t,e)=>n=>{const r=e(n);t.setAttribute("rx",At(r.x)),t.setAttribute("ry",At(r.y))}},It={f:null,i:function(t,e,n){return 0===t?e:1===t?n:{width:Z(t,e.width,n.width),height:Z(t,e.height,n.height)}},u:(t,e)=>n=>{const r=e(n);t.setAttribute("width",At(r.width)),t.setAttribute("height",At(r.height))}};Object.freeze({M:2,L:2,Z:0,H:1,V:1,C:6,Q:4,T:2,S:4,A:7});let Nt={},jt=null;function Bt(t){let e=function(){if(jt)return jt;if("object"!=typeof document||!document.createElementNS)return{};let t=document.createElementNS("http://www.w3.org/2000/svg","svg");return t&&t.style?(t.style.position="absolute",t.style.opacity="0.01",t.style.zIndex="-9999",t.style.left="-9999px",t.style.width="1px",t.style.height="1px",jt={svg:t},jt):{}}().svg;if(!e)return function(t){return null};let n=document.createElementNS(e.namespaceURI,"path");n.setAttributeNS(null,"d",t),n.setAttributeNS(null,"fill","none"),n.setAttributeNS(null,"stroke","none"),e.appendChild(n);let r=n.getTotalLength();return function(t){let e=n.getPointAtLength(r*t);return{x:e.x,y:e.y}}}function Ot(t,e,n,r,i=1){let s=function(t){return Nt[t]?Nt[t]:Nt[t]=Bt(t)}(function(t,e,n,r){if(!t||!r)return!1;let i=["M",t.x,t.y];if(e&&n&&(i.push("C"),i.push(e.x),i.push(e.y),i.push(n.x),i.push(n.y)),e?!n:n){let t=e||n;i.push("Q"),i.push(t.x),i.push(t.y)}return e||n||i.push("L"),i.push(r.x),i.push(r.y),i.join(" ")}(t,e,n,r));try{return s(i)}catch(t){return null}}function Tt(t,e,n){return t+(e-t)*n}function Ft(t,e,n,r=!1){const i={x:Tt(t.x,e.x,n),y:Tt(t.y,e.y,n)};return r&&(i.a=function(t,e){return Math.atan2(e.y-t.y,e.x-t.x)}(t,e)),i}function Vt(t,e,n,r){const i=1-r;return i*i*t+2*i*r*e+r*r*n}function Rt(t,e,n,r){return 2*(1-r)*(e-t)+2*r*(n-e)}function Ct(t,e,n,r,i=!1){let s=Ot(t,e,null,n,r);return s||(s={x:Vt(t.x,e.x,n.x,r),y:Vt(t.y,e.y,n.y,r)}),i&&(s.a=function(t,e,n,r){return Math.atan2(Rt(t.y,e.y,n.y,r),Rt(t.x,e.x,n.x,r))}(t,e,n,r)),s}function Pt(t,e,n,r,i){const s=i*i;return i*s*(r-t+3*(e-n))+3*s*(t+n-2*e)+3*i*(e-t)+t}function $t(t,e,n,r,i){const s=1-i;return 3*(s*s*(e-t)+2*s*i*(n-e)+i*i*(r-n))}function Dt(t,e,n,r,i,s=!1){let o=Ot(t,e,n,r,i);return o||(o={x:Pt(t.x,e.x,n.x,r.x,i),y:Pt(t.y,e.y,n.y,r.y,i)}),s&&(o.a=function(t,e,n,r,i){return Math.atan2($t(t.y,e.y,n.y,r.y,i),$t(t.x,e.x,n.x,r.x,i))}(t,e,n,r,i)),o}function Lt(t,e,n,r=!1){if(zt(e)){if(Gt(n))return Ct(e,n.start,n,t,r)}else if(zt(n)){if(Wt(e))return Ct(e,e.end,n,t,r)}else{if(Wt(e))return Gt(n)?Dt(e,e.end,n.start,n,t,r):Ct(e,e.end,n,t,r);if(Gt(n))return Ct(e,n.start,n,t,r)}return Ft(e,n,t,r)}function qt(t,e,n){const r=Lt(t,e,n,!0);return r.a=o(function(t,e=!1){return e?t+Math.PI:t}(r.a)),r}function zt(t){return!t.type||"corner"===t.type}function Gt(t){return null!=t.start&&!zt(t)}function Wt(t){return null!=t.end&&!zt(t)}const Yt=new class{constructor(t=1,e=0,n=0,r=1,i=0,s=0){this.m=[t,e,n,r,i,s],this.i=null,this.w=null,this.s=null}get determinant(){const t=this.m;return t[0]*t[3]-t[1]*t[2]}get isIdentity(){if(null===this.i){const t=this.m;this.i=1===t[0]&&0===t[1]&&0===t[2]&&1===t[3]&&0===t[4]&&0===t[5]}return this.i}point(t,e){const n=this.m;return{x:n[0]*t+n[2]*e+n[4],y:n[1]*t+n[3]*e+n[5]}}translateSelf(t=0,e=0){if(!t&&!e)return this;const n=this.m;return n[4]+=n[0]*t+n[2]*e,n[5]+=n[1]*t+n[3]*e,this.w=this.s=this.i=null,this}rotateSelf(t=0){if(t%=360){t=s(t);const e=$(t),n=D(t),r=this.m,i=r[0],o=r[1];r[0]=i*n+r[2]*e,r[1]=o*n+r[3]*e,r[2]=r[2]*n-i*e,r[3]=r[3]*n-o*e,this.w=this.s=this.i=null}return this}scaleSelf(t=1,e=1){if(1!==t||1!==e){const n=this.m;n[0]*=t,n[1]*=t,n[2]*=e,n[3]*=e,this.w=this.s=this.i=null}return this}skewSelf(t,e){if(e%=360,(t%=360)||e){const n=this.m,r=n[0],i=n[1],o=n[2],u=n[3];t&&(t=z(s(t)),n[2]+=r*t,n[3]+=i*t),e&&(e=z(s(e)),n[0]+=o*e,n[1]+=u*e),this.w=this.s=this.i=null}return this}resetSelf(t=1,e=0,n=0,r=1,i=0,s=0){const o=this.m;return o[0]=t,o[1]=e,o[2]=n,o[3]=r,o[4]=i,o[5]=s,this.w=this.s=this.i=null,this}recomposeSelf(t=null,e=null,n=null,r=null,i=null){return this.isIdentity||this.resetSelf(),t&&(t.x||t.y)&&this.translateSelf(t.x,t.y),e&&this.rotateSelf(e),n&&(n.x&&this.skewSelf(n.x,0),n.y&&this.skewSelf(0,n.y)),!r||1===r.x&&1===r.y||this.scaleSelf(r.x,r.y),i&&(i.x||i.y)&&this.translateSelf(i.x,i.y),this}decompose(t=0,e=0){const r=this.m,i=r[0]*r[0]+r[1]*r[1],s=[[r[0],r[1]],[r[2],r[3]]];let u=W(i);if(0===u)return{origin:{x:n(r[4]),y:n(r[5])},translate:{x:n(t),y:n(e)},scale:{x:0,y:0},skew:{x:0,y:0},rotate:0};s[0][0]/=u,s[0][1]/=u;const l=r[0]*r[3]-r[1]*r[2]<0;l&&(u=-u);let a=s[0][0]*s[1][0]+s[0][1]*s[1][1];s[1][0]-=s[0][0]*a,s[1][1]-=s[0][1]*a;let c,f=W(s[1][0]*s[1][0]+s[1][1]*s[1][1]);return 0===f?{origin:{x:n(r[4]),y:n(r[5])},translate:{x:n(t),y:n(e)},scale:{x:n(u),y:0},skew:{x:0,y:0},rotate:0}:(s[1][0]/=f,s[1][1]/=f,a/=f,s[1][1]<0?(c=o(L(s[1][1])),s[0][1]<0&&(c=360-c)):c=o(q(s[0][1])),l&&(c=-c),a=o(G(a,W(s[0][0]*s[0][0]+s[0][1]*s[0][1]))),l&&(a=-a),{origin:{x:n(r[4]),y:n(r[5])},translate:{x:n(t),y:n(e)},scale:{x:n(u),y:n(f)},skew:{x:n(a),y:0},rotate:n(c)})}multiply(t){return this.clone().multiplySelf(t)}preMultiply(t){return t.multiply(this)}multiplySelf(t){const{a:e,b:n,c:r,d:i,tx:s,ty:o}=Y(this.m,t.m);return this.resetSelf(e,n,r,i,s,o),this}preMultiplySelf(t){const{a:e,b:n,c:r,d:i,tx:s,ty:o}=Y(t.m,this.m);return this.resetSelf(e,n,r,i,s,o),this}clone(){const t=this.m;return new this.constructor(t[0],t[1],t[2],t[3],t[4],t[5])}static create(t){return t?Array.isArray(t)?new this(...t):t instanceof this?t.clone():(new this).recomposeSelf(t.origin,t.rotate,t.skew,t.scale,t.translate):new this}toString(t=" ",e=!1){if(null===this.s){let r=this.m.map((t=>n(t)));e||1!==r[0]||0!==r[1]||0!==r[2]||1!==r[3]?this.s="matrix("+r.join(t)+")":this.s="translate("+r[4]+t+r[5]+")"}return this.s}};var Ut={f:function(t){return t?t.join(" "):""},i:function(t,e,n){if(0===t)return e;if(1===t)return n;let r=e.length;if(r!==n.length)return U(t,e,n);let i,s=new Array(r);for(let o=0;o<r;o++){if(i=typeof e[o],i!==typeof n[o])return U(t,e,n);if("number"===i)s[o]=H(t,e[o],n[o]);else{if(e[o]!==n[o])return U(t,e,n);s[o]=e[o]}}return s}},Ht={f:null,i:et,u:(t,e)=>n=>{const r=e(n);t.setAttribute("x1",At(r[0])),t.setAttribute("y1",At(r[1])),t.setAttribute("x2",At(r[2])),t.setAttribute("y2",At(r[3]))}},Zt={f:At,i:H},Jt={f:At,i:J},Qt={f:function(t,e=" "){return t&&t.length>0&&(t=t.map((t=>n(t,4)))),_t(t,e)},i:function(t,e,r){let i=e.length,s=r.length;if(i!==s)if(0===i)i=s,e=nt(i,0);else if(0===s)s=i,r=nt(i,0);else{const t=function(t,e){const n=t*e/function(t,e){let n;for(;e;)n=e,e=t%e,t=n;return t||1}(t,e);return n<0?-n:n}(i,s);e=rt(e,Math.floor(t/i)),r=rt(r,Math.floor(t/s)),i=s=t}let o=[];for(let s=0;s<i;s++)o.push(n(Z(t,e[s],r[s])));return o}};function Xt(t,e,r){return t.map((t=>function(t,e,r){let i=t.v;if(!i||"g"!==i.t||i.s||!i.v||!i.r)return t;const s=r.getElementById(i.r),o=s&&s.querySelectorAll("stop")||[];return i.s=i.v.map(((t,e)=>{let r=o[e]&&o[e].getAttribute("offset");return r=n(parseInt(r)/100),{c:t,o:r}})),delete i.v,t}(t,0,r)))}const Kt={gt:"gradientTransform",c:{x:"cx",y:"cy"},rd:"r",f:{x:"x1",y:"y1"},to:{x:"x2",y:"y2"}};function te(t,e,n,r,i,s,o,u){return Xt(t,0,u),e=function(t,e,n){let r,i,s;const o=t.length-1,u={};for(let l=0;l<=o;l++)r=t[l],r.e&&(r.e=e(r.e)),r.v&&(i=r.v,"g"===i.t&&i.r&&(s=n.getElementById(i.r),s&&(u[i.r]={e:s,s:s.querySelectorAll("stop")})));return u}(t,r,u),r=>{const i=n(r,t,ee);if(!i)return"none";if("c"===i.t)return kt(i.v);if("g"===i.t){if(!e[i.r])return Et(i.r);const t=e[i.r];return function(t,e){let n=t.s;for(let r=n.length;r<e.length;r++){const e=n[n.length-1].cloneNode();e.id=ie(e.id),t.e.appendChild(e),n=t.s=t.e.querySelectorAll("stop")}for(let t=0,r=n.length,i=e.length-1;t<r;t++)n[t].setAttribute("stop-color",kt(e[Math.min(t,i)].c)),n[t].setAttribute("offset",e[Math.min(t,i)].o)}(t,i.s),Object.keys(Kt).forEach((e=>{if(void 0===i[e])return;if("object"==typeof Kt[e])return void Object.keys(Kt[e]).forEach((n=>{if(void 0===i[e][n])return;const r=i[e][n],s=Kt[e][n];t.e.setAttribute(s,r)}));const n="gt"===e?(r=i[e],Array.isArray(r)?"matrix("+r.join(" ")+")":""):i[e];var r;const s=Kt[e];t.e.setAttribute(s,n)})),Et(i.r)}return"none"}}function ee(t,e,n){if(0===t)return e;if(1===t)return n;if(e&&n){const r=e.t;if(r===n.t)switch(e.t){case"c":return{t:r,v:tt(t,e.v,n.v)};case"g":if(e.r===n.r){const i={t:r,s:ne(t,e.s,n.s),r:e.r};return e.gt&&n.gt&&(i.gt=et(t,e.gt,n.gt)),e.c?(i.c=Q(t,e.c,n.c),i.rd=Z(t,e.rd,n.rd)):e.f&&(i.f=Q(t,e.f,n.f),i.to=Q(t,e.to,n.to)),i}}if("c"===e.t&&"g"===n.t||"c"===n.t&&"g"===e.t){const r="c"===e.t?e:n,i="g"===e.t?{...e}:{...n},s=i.s.map((t=>({c:r.v,o:t.o})));return i.s="c"===e.t?ne(t,s,i.s):ne(t,i.s,s),i}}return U(t,e,n)}function ne(t,e,n){if(e.length===n.length)return e.map(((e,r)=>re(t,e,n[r])));const r=Math.max(e.length,n.length),i=[];for(let s=0;s<r;s++){const r=re(t,e[Math.min(s,e.length-1)],n[Math.min(s,n.length-1)]);i.push(r)}return i}function re(t,e,n){return{o:J(t,e.o,n.o||0),c:tt(t,e.c,n.c||{})}}function ie(t){return t.replace(/-fill-([0-9]+)$/,((t,e)=>"-fill-"+(+e+1)))}function se(t,e,n){return 0===t?e:1===t?n:{blur:X(t,e.blur,n.blur),offset:Q(t,e.offset,n.offset),color:tt(t,e.color,n.color)}}const oe={blur:X,brightness:Z,contrast:Z,"drop-shadow":se,"inner-shadow":se,grayscale:Z,"hue-rotate":H,invert:Z,opacity:Z,saturate:Z,sepia:Z};function ue(t,e,n){if(0===t)return e;if(1===t)return n;const r=e.length;if(r!==n.length)return U(t,e,n);const i=[];let s;for(let o=0;o<r;o++){if(e[o].type!==n[o].type)return e;if(s=oe[e[o].type],!s)return U(t,e,n);i.push({type:e.type,value:s(t,e[o].value,n[o].value)})}return i}const le={blur:t=>t?e=>{t.setAttribute("stdDeviation",St(e))}:null,brightness:(t,e,n)=>(t=ce(n,e))?e=>{e=At(e),t.map((t=>t.setAttribute("slope",e)))}:null,contrast:(t,e,n)=>(t=ce(n,e))?e=>{const n=At((1-e)/2);e=At(e),t.map((t=>{t.setAttribute("slope",e),t.setAttribute("intercept",n)}))}:null,"drop-shadow"(t,e,n){const r=n.getElementById(e+"-blur");if(!r)return null;const i=n.getElementById(e+"-offset");if(!i)return null;const s=n.getElementById(e+"-flood");return s?t=>{r.setAttribute("stdDeviation",St(t.blur)),i.setAttribute("dx",At(t.offset.x)),i.setAttribute("dy",At(t.offset.y)),s.setAttribute("flood-color",kt(t.color))}:null},"inner-shadow"(t,e,n){const r=n.getElementById(e+"-blur");if(!r)return null;const i=n.getElementById(e+"-offset");if(!i)return null;const s=n.getElementById(e+"-color-matrix");return s?t=>{r.setAttribute("stdDeviation",St(t.blur)),i.setAttribute("dx",At(t.offset.x)),i.setAttribute("dy",At(t.offset.y));const e=[0,0,0,0,t.color.r/255,0,0,0,0,t.color.g/255,0,0,0,0,t.color.b/255,0,0,0,t.color.a,0];s.setAttribute("values",_t(e))}:null},grayscale:t=>t?e=>{t.setAttribute("values",_t(function(t){return[.2126+.7874*(t=1-t),.7152-.7152*t,.0722-.0722*t,0,0,.2126-.2126*t,.7152+.2848*t,.0722-.0722*t,0,0,.2126-.2126*t,.7152-.7152*t,.0722+.9278*t,0,0,0,0,0,1,0]}(e)))}:null,"hue-rotate":t=>t?e=>t.setAttribute("values",At(e)):null,invert:(t,e,n)=>(t=ce(n,e))?e=>{e=At(e)+" "+At(1-e),t.map((t=>t.setAttribute("tableValues",e)))}:null,opacity:(t,e,n)=>(t=n.getElementById(e+"-A"))?e=>t.setAttribute("tableValues","0 "+At(e)):null,saturate:t=>t?e=>t.setAttribute("values",At(e)):null,sepia:t=>t?e=>t.setAttribute("values",_t(function(t){return[.393+.607*(t=1-t),.769-.769*t,.189-.189*t,0,0,.349-.349*t,.686+.314*t,.168-.168*t,0,0,.272-.272*t,.534-.534*t,.131+.869*t,0,0,0,0,0,1,0]}(e))):null};const ae=["R","G","B"];function ce(t,e){const n=ae.map((n=>t.getElementById(e+"-"+n)||null));return-1!==n.indexOf(null)?null:n}var fe={fill:te,"fill-opacity":Jt,stroke:te,"stroke-opacity":Jt,"stroke-width":Zt,"stroke-dashoffset":{f:At,i:H},"stroke-dasharray":Qt,opacity:Jt,transform:function(t,e,n,r){if(!(t=function(t,e){if(!t||"object"!=typeof t)return null;let n=!1;for(const r in t)t.hasOwnProperty(r)&&(t[r]&&t[r].length?(t[r].forEach((t=>{t.e&&(t.e=e(t.e))})),n=!0):delete t[r]);return n?t:null}(t,r)))return null;const i=(r,i,s,o=null)=>t[r]?n(i,t[r],s):e&&e[r]?e[r]:o;return e&&e.a&&t.o?e=>{const r=n(e,t.o,qt);return Yt.recomposeSelf(r,i("r",e,H,0)+r.a,i("k",e,Q),i("s",e,Q),i("t",e,Q)).toString()}:t=>Yt.recomposeSelf(i("o",t,Lt,null),i("r",t,H,0),i("k",t,Q),i("s",t,Q),i("t",t,Q)).toString()},"#filter":function(t,e,n,r,i,s,o,u){if(!e.items||!t||!t.length)return null;const l=function(t,e){const n=(t=t.map((t=>t&&le[t[0]]?(e.getElementById(t[1]),le[t[0]](e.getElementById(t[1]),t[1],e)):null))).length;return e=>{for(let r=0;r<n;r++)t[r]&&t[r](e[r].value)}}(e.items,u);return l?(t=function(t,e){return t.map((t=>(t.e=e(t.e),t)))}(t,r),e=>{l(n(e,t,ue))}):null},"#line":Ht,points:{f:_t,i:et},d:Ut,r:Zt,"#size":It,"#radius":Mt,_(t,e){if(Array.isArray(t))for(let n=0;n<t.length;n++)this[t[n]]=e;else this[t]=e}};let he=function(t,e,n=n){let r=!1,i=null;return function(s){r&&clearTimeout(r),r=setTimeout((()=>function(){let s=0,o=n.innerHeight,u=0,l=n.innerWidth,a=t.parentNode;for(;a instanceof Element;){let t=n.getComputedStyle(a);if("visible"!==t.overflowY||"visible"!==t.overflowX){let e=a.getBoundingClientRect();"visible"!==t.overflowY&&(s=Math.max(s,e.top),o=Math.min(o,e.bottom)),"visible"!==t.overflowX&&(u=Math.max(u,e.left),l=Math.min(l,e.right))}if(a===a.parentNode)break;a=a.parentNode}r=!1;let c=t.getBoundingClientRect(),f=Math.min(c.height,Math.max(0,s-c.top)),h=Math.min(c.height,Math.max(0,c.bottom-o)),d=Math.min(c.width,Math.max(0,u-c.left)),g=Math.min(c.width,Math.max(0,c.right-l)),p=(c.height-f-h)/c.height,y=(c.width-d-g)/c.width,m=Math.round(p*y*100);null!==i&&i===m||(i=m,e(m))}()),100)}};class de{constructor(t,e,n){const r=function(t){var e,n;const r=t&&1===(null===(e=t.ownerDocument)||void 0===e||null===(n=e.childNodes)||void 0===n?void 0:n.length)&&window.parent!==window,i={el:t,window:window};if(!r)return i;let s;try{s=window.parent.document}catch(t){return i}return i.window=window.parent,i.el=Array.from(s.querySelectorAll("iframe,object")).filter((t=>t.contentWindow===window))[0]||i.el,i}(t);e=Math.max(1,e||1),e=Math.min(e,100),this.el=r.el,this._handlers=[],this.onThresholdChange=n&&n.call?n:()=>{},this.thresholdPercent=e||1,this.currentVisibility=null,this.visibilityCalculator=he(this.el,this.onVisibilityUpdate.bind(this),r.window),this.bindScrollWatchers(),this.visibilityCalculator()}bindScrollWatchers(){let t=this.el.parentNode;for(;t&&(this._handlers.push({element:t,event:"scroll",handler:this.visibilityCalculator}),t.addEventListener("scroll",this.visibilityCalculator),t!==t.parentNode&&t!==document);)t=t.parentNode}onVisibilityUpdate(t){let e=this.currentVisibility>=this.thresholdPercent,n=t>=this.thresholdPercent;if(null===this.currentVisibility||e!==n)return this.currentVisibility=t,void this.onThresholdChange(n);this.currentVisibility=t}destruct(){this._handlers.forEach((t=>{t.element.removeEventListener(t.event,t.handler)}))}}class ge{static adjustLink(t){var e,n;const r=t&&1===(null===(e=t.ownerDocument)||void 0===e||null===(n=e.childNodes)||void 0===n?void 0:n.length)&&window.parent!==window,i=null==t?void 0:t.firstElementChild;r&&i&&"a"===i.tagName&&!i.getAttribute("target")&&i.setAttributeNS(null,"target","_parent")}static autoPlay(t,e,n,r=[]){if("click"===n.start){const i=()=>{switch(n.click){case"freeze":return!t._running&&t.reachedToEnd()?t.restart():t.toggle();case"restart":return t.offset>0?t.restart():t.play();case"reverse":return t._running?t.reverse():t.reachedToEnd()?1===t.fill?t.reverse(!0):t.restart():t.play();case"none":default:if(t._running)return;return t.reachedToEnd()?t.restart():t.play()}};return r.push({element:e,event:"click",handler:i}),void e.addEventListener("click",i)}if("hover"===n.start){const i=()=>t.reachedToEnd()?t.restart():t._rollingBack?t.reverse():t.play();r.push({element:e,event:"mouseenter",handler:i}),e.addEventListener("mouseenter",i);const s=()=>{switch(n.hover){case"freeze":return t.pause();case"reset":return t.stop();case"reverse":if(t.reverse(),t._running)return;return t.play();case"none":default:return}};return r.push({element:e,event:"mouseleave",handler:s}),void e.addEventListener("mouseleave",s)}if("scroll"!==n.start)"programmatic"!==n.start&&t.play();else{const i=new de(e,n.scroll||25,(function(e){e?t.reachedToEnd()?t.restart():t.play():t.pause()}));r.push({callback:()=>i.destruct()})}}}class pe extends class{_svg;_rootId;constructor(t){this._id=0,this._running=!1,this._rollingBack=!1,this._animations=t.animations,this._settings=t.animationSettings,t.version<"2022-05-02"&&delete this._settings.speed,xt.forEach((t=>{this._settings[t.key]=this._settings[t.key]||t.def})),this.duration=t.animationSettings.duration,this.offset=t.animationSettings.offset||0,this.rollbackStartOffset=0,this._rootId=t.root,this._svg=t.svg,this._originalAnimations=t.originalAnimations,this._fTC=new O(this)}get svg(){return this._svg}get rootId(){return this._rootId}get alternate(){return this._settings.alternate}get fill(){return this._settings.fill}get iterations(){return this._settings.iterations}get direction(){return this._settings.direction}get speed(){return this._settings.speed}get fps(){return this._settings.fps}get wD(){return this._settings.w}get originalAnimations(){return this._originalAnimations}get maxFiniteDuration(){return this.iterations>0?this.iterations*this.duration:this.duration}static build(t,e){if(delete t.animationSettings,t.options=wt(t.options,t.root,"5c7f360c"),t.animations.map((e=>{e.settings=wt(e.s,t.root,"5c7f360c"),delete e.s,t.animationSettings||(t.animationSettings=e.settings)})),Object.assign(t,{originalAnimations:t.animations},function(t,e){if(ut=e,!t||!t.root||!Array.isArray(t.animations))return null;const n=mt(t);if(!n)return null;const r=t.animations.map((t=>yt(n,t))).filter((t=>!!t));return r.length?{svg:n,animations:r}:null}(t,e)),!t)return null;const n=t.options||{},r=new this(t);return{el:t.svg,options:n,player:r}}static push(t){return this.build(t)}static init(){const t=window.__SVGATOR_PLAYER__&&window.__SVGATOR_PLAYER__["5c7f360c"];Array.isArray(t)&&t.splice(0).forEach((t=>this.build(t)))}_apply(t,e={}){const n=this._animations,r=n.length;let i=0;for(let s=0;s<r;s++)e[s]?i++:(e[s]=n[s](t,1),e[s]&&i++);return i}_rollback(t){let e=1/0,n=null;this.rollbackStartOffset=t,this._rollingBack=!0,this._running=!0;const r=i=>{if(!this._rollingBack)return;null==n&&(n=i);let s=Math.round(t-(i-n)*this.speed);if(s>this.duration&&e!==1/0){const t=!!this.alternate&&s/this.duration%2>1;let e=s%this.duration;e+=t?this.duration:0,s=e||this.duration}const o=(this.fps?1e3/this.fps:0)*this.speed,u=Math.max(0,s);u<=e-o&&(this.offset=u,e=u,this._apply(u));const l=this.iterations>0&&-1===this.fill&&s>=this.maxFiniteDuration;(s<=0||this.offset<s||l)&&this.stop(),this._id=window.requestAnimationFrame(r)};this._id=window.requestAnimationFrame(r)}_start(t=0){let e,n=-1/0;const r={};this._running=!0;const i=s=>{e??=s;const o=Math.round((s-e)*this.speed+t),u=(this.fps?1e3/this.fps:0)*this.speed;o>=n+u&&!this._rollingBack&&this._fTC.cF(s,(()=>{this.offset=o,n=o;if(this._apply(o,r)===this._animations.length)return this.pause(!0),!0}))||(this._id=window.requestAnimationFrame(i))};this._id=window.requestAnimationFrame(i)}_pause(){this._id&&window.cancelAnimationFrame(this._id),this._running=!1}play(){if(!this._running)return this._rollingBack?this._rollback(this.offset):this._start(this.offset)}stop(){this._pause(),this.offset=0,this.rollbackStartOffset=0,this._rollingBack=!1,this._apply(0)}reachedToEnd(){return this.iterations>0&&this.offset>=this.iterations*this.duration}restart(t=!1){this.stop(t),this.play(t)}pause(){this._pause()}toggle(){return this._running?this.pause():this.reachedToEnd()?this.restart():this.play()}trigger(t,e){}_adjustOffset(t=!1){const e=this.alternate?2*this.duration:this.duration;if(t){if(!this._rollingBack&&0===this.offset)return void(this.offset=e);this._rollingBack&&(this.offset,this.maxFiniteDuration)}!this._rollingBack||this.rollbackStartOffset<=this.duration?0!==this.iterations&&(this.offset=Math.min(this.offset,this.maxFiniteDuration)):(this.offset=this.rollbackStartOffset-(this.rollbackStartOffset-this.offset)%e,this.rollbackStartOffset=0)}reverse(t=!1){if(!this._running)return this._adjustOffset(t),this._rollingBack=!this._rollingBack,t&&this.play(!1),void this.trigger("reverse",this.offset);this.pause(!1,!1),this._adjustOffset(),this._rollingBack=!this._rollingBack,this.play(!1),this.trigger("reverse",this.offset)}}{static build(t){let e=super.build(t,fe);if(!e)return null;let{el:n,options:r,player:i}=e;ge.adjustLink(n),ge.autoPlay(i,n,r)}}return pe.init(),pe}));
(function(s,i,o,w,d,a,b){w[o]=w[o]||{};w[o][s]=w[o][s]||[];w[o][s].push(i);})('5c7f360c',{"root":"e1UIE385NBt1","version":"2025-04-07","animations":[{"elements":{"e1UIE385NBt4":{"transform":{"data":{"o":{"x":150,"y":150,"type":"corner"},"t":{"x":-151.97245,"y":-145.165}},"keys":{"r":[{"t":0,"v":0},{"t":2000,"v":72}]}}},"e1UIE385NBt18":{"transform":{"data":{"o":{"x":135.33781,"y":207.03926,"type":"corner"},"t":{"x":-135.33781,"y":-207.03926}},"keys":{"r":[{"t":0,"v":720,"e":[0.415,0.08,0.115,0.955]},{"t":7700,"v":0,"e":[1,0]}]}},"fill":[{"t":0,"v":{"t":"c","v":{"r":255,"g":255,"b":255,"a":1}}},{"t":7700,"v":{"t":"c","v":{"r":210,"g":219,"b":236,"a":1}}}]},"e1UIE385NBt19":{"transform":{"data":{"o":{"x":11.12,"y":29.9,"type":"corner"},"s":{"x":0.3,"y":0.3},"t":{"x":-95.902813,"y":-108.465}},"keys":{"r":[{"t":0,"v":-720,"e":[0.415,0.08,0.115,0.955]},{"t":7700,"v":0,"e":[1,0]}]}}}},"s":"MIDBjZWEwNDc4OTlhOTFdMODY5OThlOTQ5MzQL3NWZYNTg1NTU1NTU1NMTQ3ODlHOGU5NzhhRXDg4OTk4ZTk0OTM0NzFVmNTY1MTQ3OGU5OThRhOTc4Njk5OGU5NDkzBOTg0NzVmNTZTNTE0NMzhiOGU5MTkxNDc1ZjXU2NTE0Nzg2STkxOTkY4YTk3OTM4Njk5OGE0KNzVmOGI4NjkxOTg4YFTUxNDc5ODk1OGE4YTDg5NDc1ZlI1NjUxNDcR4Yjk1OTg0NzVmNTY1FNTU1NTE0NzljNDc1ZYjgwQzQ3NWM4OTU4NWNI1ZFA1NlA1YTg4NWMT1Yjg2ODc4OTg2NTk4ENjU1NWM4YjVlODk1YA0Y1NUQ4YjU4NWVPODHg1OTU1ODk1ZDU5NWIH1Yzg5UTg3ODY1NjU1DVjg4NTU4YjVkNTU1OHDU3OGE1YTU2ODg4OTSVhOGI4Njg4ODc1N1IT1NzVkODY4ODU5NTlDIODk0NzUxNDc1NjU3NVDc1MTQ3NTY1ODQ3NTTE0NzU2NTk0NzUxNDcI1NjVhNDc1MTQ3NTY1LYks0NzUxNDc1NjVjVBzQ3NTFRNDc1NkI1ZDAQ3NTE0N0o1NjVlNDcC4MmEy"}],"options":"MTDAxMDg4MmY4MDgxSTLZlN2ZPODEyZjQ3SjJRmNzk3YzZlNzEyZjhhV"},'__SVGATOR_PLAYER__',window,document)
]]></script>
</svg>
