<?xml version="1.0" standalone="no"?>
<svg viewBox="0 0 200 200" xmlns="http://www.w3.org/2000/svg">
  <path fill="#279AF1" d="M32.7,-49.9C41.7,-45,47.9,-34.9,56.3,-23.6C64.7,-12.4,75.3,0,73.3,10.2C71.3,20.4,56.7,28.4,45.6,37.2C34.4,46.1,26.8,55.7,15.8,63.2C4.8,70.8,-9.6,76.3,-21.8,73.1C-33.9,70,-43.8,58.3,-48.3,45.9C-52.7,33.5,-51.7,20.4,-56.1,6.5C-60.4,-7.3,-70.2,-21.9,-67.9,-32.7C-65.6,-43.4,-51.2,-50.4,-37.9,-53.2C-24.6,-56.1,-12.3,-54.8,-0.2,-54.5C11.8,-54.1,23.7,-54.7,32.7,-49.9Z" transform="translate(100 100)" />
</svg>
