<?xml version='1.0' encoding='utf-8'?>
<svg xmlns="http://www.w3.org/2000/svg" viewBox="0 0 256 256"> <defs> <filter id="h"> <feGaussianBlur stdDeviation=".94254"/> </filter> <filter id="g"> <feGaussianBlur stdDeviation=".50699"/> </filter> <filter id="j" x="-.17396" y="-.04706" width="1.3479" height="1.0941"> <feGaussianBlur stdDeviation=".84604"/> </filter> <filter id="i" x="-.35227" y="-.24484" width="1.7045" height="1.4897"> <feGaussianBlur stdDeviation="1.76548"/> </filter> <linearGradient id="b" x1="540.83" x2="524.67" y1="494.92" y2="478.92" gradientTransform="matrix(.13285 1.0229 -1.0238 -.13353 977.57 68.037)" gradientUnits="userSpaceOnUse"> <stop stop-color="#07131d" offset="0"/> <stop stop-color="#53738f" offset=".5"/> <stop stop-color="#88a8c4" offset=".75"/> <stop stop-color="#aaceeb" offset="1"/> </linearGradient> <linearGradient id="f" x1="540.83" x2="524.67" y1="494.92" y2="478.92" gradientTransform="matrix(.13285 1.0229 -1.0238 -.13353 978.57 69.037)" gradientUnits="userSpaceOnUse"> <stop offset="0"/> <stop stop-color="#151515" offset=".25"/> <stop stop-color="#9e9e9e" offset=".5"/> <stop stop-color="#fff" offset=".75"/> <stop stop-color="#fff" offset=".875"/> <stop stop-color="#c3c3c3" offset="1"/> </linearGradient> <linearGradient id="c" x1="-6.2262" x2="-2.6699" gradientTransform="matrix(.70902 -.77734 .73765 .74605 27.048 10.479)" gradientUnits="userSpaceOnUse"> <stop stop-color="#666" stop-opacity="0" offset="0"/> <stop stop-color="#666" offset=".5"/> <stop stop-color="#666" stop-opacity=".02062" offset="1"/> </linearGradient> <linearGradient id="e" x1="476.75" x2="492.83" y1="479.39" y2="464.96" gradientUnits="userSpaceOnUse"> <stop stop-color="#3a2415" offset="0"/> <stop stop-color="#61412b" offset=".25"/> <stop stop-color="#805b42" offset=".5"/> <stop stop-color="#936a4f" offset=".75"/> <stop stop-color="#bd8e6f" offset="1"/> </linearGradient> <linearGradient id="d" x1="480.88" x2="488.98" y1="454.61" y2="429.85" gradientUnits="userSpaceOnUse"> <stop stop-color="#362316" offset="0"/> <stop stop-color="#362316" stop-opacity="0" offset="1"/> </linearGradient> <radialGradient id="a" cx="451.01" cy="421.25" r="6.0044" gradientTransform="matrix(1 0 0 1.4392 51 -145)" gradientUnits="userSpaceOnUse"> <stop stop-color="#fff" stop-opacity=".48454" offset="0"/> <stop stop-color="#fff" stop-opacity=".15464" offset="1"/> </radialGradient> </defs> <g transform="translate(-429.74 -389.47)"> <g transform="translate(-1,-.58333)" fill-rule="evenodd"> <path d="m477.02 483.6c-7.0478-6.4136-9.697-19.155-6.7622-30.192 0.65994-3.3223 1.6823-6.6727 3.0856-9.5683 0.85551-0.79106 1.3531-0.16696 1.9344 0.64513s1.3711 2.0622 1.583 3.0218c2.2066 6.4336 5.6541 12.215 10.098 15.956 2.83 2.6544 5.4906 6.5855 5.6432 11.011-0.08737 2.2835-0.0709 3.5668-0.44265 5.0496-0.38169 1.5225-0.74988 3.2714-3.0836 5.3382-1.8229 1.7076-5.2707 1.6143-7.07 1.3194s-3.5113-1.3296-4.9854-2.5809z" fill="url(#e)"/> <path transform="matrix(.85467 0 0 .85467 58.201 76.494)" d="m497 452.61c-1.8739 3.6741-0.85597 11.288 1 15 2.6476 5.2951 9.2155 0.13817 10-3 0.4165-1.666-3.2754-12.594-11-12z" fill="url(#a)" filter="url(#i)"/> <path transform="matrix(.85467 0 0 .85467 58.201 76.494)" d="m480.88 450.63c-0.00496 4.4818 1.3997 11.936 2.8455 15.548 4.0171 10.035 9.4559 12.005 13.265 13.173 0.87829 0.26946-5.1857-7.2477-6.7353-8.9207-2.206-2.3818-3.7661-3.9231-4.8823-7.2548-2.5706-7.6728-4.3338-7.2494 0.52946-33.153 0.2722-1.4498-3.5632 6.2646-5.022 20.607z" fill="url(#d)" filter="url(#g)"/> <path transform="matrix(.85467 0 0 .85467 58.201 76.494)" d="m489.63 449.13c-0.00496 4.4818 2.1138 7.9124 3.2205 11.673 1.6048 5.4533 3.0809 7.2546 6.6396 9.6731 0.75982 0.5164 10.996-0.25693 6.5147-7.5457-1.8428-2.9974-3.5883-7.2904-7.5073-10.005-5.9961-4.1532-10.85-18.278-11.846-23.153-0.59116-2.8936 2.8118 15.39 2.978 19.357z" fill="#fff" fill-opacity=".13125" filter="url(#j)"/> </g> <path d="m620.71 614.1c2.5278-2.7971-25.166-37.292-57.982-71.293s-71.262-66.231-71.262-66.231c-2.0344 5.847-2.8077 6.7443-9.4533 8.9064 0 0 33.365 39.295 67.757 72.037s68.989 58.74 70.941 56.58z" fill="url(#b)" fill-rule="evenodd"/> <path d="m526.82 507.85c-3.855-3.5487-7.6023-6.8287-11.031-9.9056-13.713-12.308-24.316-21.384-24.316-21.384-2.0344 5.847-3.233 6.9308-9.8786 9.0929 0 0 9.7578 10.656 22.398 24.572 3.16 3.4791 6.5888 7.214 10.223 11.115 8.8262-1.5418 11.569-4.7706 12.604-13.491z" fill="url(#f)" fill-rule="evenodd"/> <path d="m523.98 516.84c1.766-3.3156 2.3843-3.8467 2.558-6.799l93.499 100.73c0.74572 2.8941 0.24779 1.8531 0.90256 3.1751l-96.959-97.109z" fill="#fff" fill-opacity=".49375" filter="url(#h)"/> <path d="m486.22 483.77c1.14-0.45065 2.0578-1.318 2.9755-2.3242l34.705 35.213c-1.0497 1.2631-1.5748 1.7908-2.9301 2.54l-34.751-35.429z" fill="url(#c)"/> </g> </svg>